<svg width="94" height="92" viewBox="0 0 94 92" fill="none" xmlns="http://www.w3.org/2000/svg">
<path d="M45.629 7.41931H60.4677V14.8387H45.629V7.41931Z" fill="#8942A5"/>
<path d="M12.9839 80.129C15.4382 80.129 17.4355 82.1263 17.4355 84.5806C17.4355 87.035 15.4382 89.0323 12.9839 89.0323" fill="#F0BC5E"/>
<path d="M88.6613 56.3871C91.1156 56.3871 93.1129 58.3844 93.1129 60.8387C93.1129 63.293 91.1156 65.2903 88.6613 65.2903" fill="#F0BC5E"/>
<path fill-rule="evenodd" clip-rule="evenodd" d="M63.4355 77.1613H54.5323V69.0801L67.7194 60.8387L54.5323 52.5973V43.0323H63.4355V31.1613H54.5323V20.7742H66.4032V0H39.6936V20.7742H51.5645V31.1613H42.6613V35.6129H29.3065V38.5806H42.6613V43.0323H51.5645V52.5973L38.3774 60.8387L51.5645 69.0801V77.1613H42.6613C40.207 77.1613 38.2097 79.1586 38.2097 81.6129V87.5484C38.2097 90.0027 40.207 92 42.6613 92H63.4355C65.8898 92 67.8871 90.0027 67.8871 87.5484V81.6129C67.8871 79.1586 65.8898 77.1613 63.4355 77.1613ZM42.6613 2.96774H63.4355V17.8065H42.6613V2.96774ZM60.4677 34.129H45.629V40.0645H60.4677V34.129ZM53.0484 55.1688L62.1193 60.8387L53.0484 66.5086L43.9775 60.8387L53.0484 55.1688ZM63.4355 89.0323C64.2531 89.0323 64.9194 88.366 64.9194 87.5484V81.6129C64.9194 80.7953 64.2531 80.129 63.4355 80.129H42.6613C41.8437 80.129 41.1774 80.7953 41.1774 81.6129V87.5484C41.1774 88.366 41.8437 89.0323 42.6613 89.0323H63.4355Z" fill="#C461EA"/>
<path d="M26.7735 79.6943L30.176 83.0968H17.1625C17.3287 83.5627 17.4355 84.0583 17.4355 84.5806C17.4355 85.103 17.3287 85.5986 17.1625 86.0645H30.176L26.7735 89.467L28.8717 91.5652L35.8563 84.5806L28.8717 77.5961L26.7735 79.6943Z" fill="#C461EA"/>
<path d="M74.4369 62.3226H84.4827C84.3165 61.8566 84.2097 61.361 84.2097 60.8387C84.2097 60.3164 84.3165 59.8208 84.4827 59.3548H74.4369L77.8394 55.9523L75.7412 53.8541L68.7567 60.8387L75.7412 67.8233L77.8394 65.7251L74.4369 62.3226Z" fill="#C461EA"/>
<path fill-rule="evenodd" clip-rule="evenodd" d="M12.9839 27.8538L25.9247 37.0968L12.9839 46.3398L0.0430298 37.0968L12.9839 27.8538ZM20.8172 37.0968L12.9839 31.5011L5.15051 37.0968L12.9839 42.6925L20.8172 37.0968Z" fill="#C461EA"/>
<path d="M45.629 5.93542H60.4677V8.90317H45.629V5.93542Z" fill="#C461EA"/>
<path d="M45.629 11.871H54.5323V14.8387H45.629V11.871Z" fill="#C461EA"/>
<path d="M57.5 11.871H60.4677V14.8387H57.5V11.871Z" fill="#C461EA"/>
<path d="M11.5 80.4021C11.9659 80.2359 12.4615 80.1291 12.9839 80.1291C13.5062 80.1291 14.0018 80.2359 14.4677 80.4021V48.9678H11.5V80.4021Z" fill="#C461EA"/>
<path d="M84.2097 10.3871C84.2097 9.86475 84.3165 9.36913 84.4827 8.9032H69.371V11.8709H84.4827C84.3165 11.405 84.2097 10.9094 84.2097 10.3871Z" fill="#C461EA"/>
<path d="M88.6613 14.8387C88.139 14.8387 87.6434 14.7319 87.1774 14.5657V56.6616C87.6434 56.4939 88.139 56.3871 88.6613 56.3871C89.1836 56.3871 89.6792 56.4939 90.1452 56.6601V14.5657C89.6792 14.7319 89.1836 14.8387 88.6613 14.8387Z" fill="#C461EA"/>
<path d="M76.7903 83.0968H79.7581V86.0645H76.7903V83.0968Z" fill="#C461EA"/>
<path d="M70.8549 83.0968H73.8226V86.0645H70.8549V83.0968Z" fill="#C461EA"/>
<path d="M82.7258 83.0968H85.6936V86.0645H82.7258V83.0968Z" fill="#C461EA"/>
<path d="M33.7581 11.871H36.7258V14.8387H33.7581V11.871Z" fill="#C461EA"/>
<path d="M27.8226 11.871H30.7903V14.8387H27.8226V11.871Z" fill="#C461EA"/>
<path d="M21.8871 11.871H24.8548V14.8387H21.8871V11.871Z" fill="#C461EA"/>
<path d="M12.9839 89.0323C10.5296 89.0323 8.53229 87.035 8.53229 84.5806C8.53229 82.1263 10.5296 80.129 12.9839 80.129C15.4382 80.129 17.4355 82.1263 17.4355 84.5806C17.4355 87.035 15.4382 89.0323 12.9839 89.0323Z" fill="#DC96F6"/>
<path d="M88.6613 65.2903C86.2069 65.2903 84.2097 63.293 84.2097 60.8387C84.2097 58.3844 86.2069 56.3871 88.6613 56.3871C91.1156 56.3871 93.1129 58.3844 93.1129 60.8387C93.1129 63.293 91.1156 65.2903 88.6613 65.2903Z" fill="#DC96F6"/>
<path d="M88.6613 14.8387C86.2069 14.8387 84.2097 12.8414 84.2097 10.387C84.2097 7.93272 86.2069 5.93542 88.6613 5.93542C91.1156 5.93542 93.1129 7.93272 93.1129 10.387C93.1129 12.8414 91.1156 14.8387 88.6613 14.8387Z" fill="#DC96F6"/>
</svg>
