<svg width="92" height="92" viewBox="0 0 92 92" fill="none" xmlns="http://www.w3.org/2000/svg">
<path fill-rule="evenodd" clip-rule="evenodd" d="M44.5161 16.652V27.8626L40.3598 28.9221C40.1832 29.3955 39.9844 29.8703 39.7663 30.3407L41.9609 34.0341L34.0341 41.9609L30.3407 39.7648C29.8703 39.9844 29.394 40.1817 28.9221 40.3583L27.8641 44.5161H16.6535L15.5955 40.3583C15.1236 40.1817 14.6473 39.9829 14.1769 39.7648L10.4835 41.9609L2.55671 34.0341L4.75135 30.3407C4.53323 29.8703 4.33439 29.3955 4.15781 28.9221L0 27.8641V16.6535L4.15781 15.5955C4.33439 15.1206 4.53323 14.6473 4.75135 14.1754L2.55671 10.4821L10.4835 2.55523L14.1769 4.75135C14.6473 4.53174 15.1236 4.33439 15.5955 4.15781L16.652 0H27.8626L28.9206 4.15632C29.3925 4.3329 29.8688 4.53174 30.3392 4.74987L34.0326 2.55374L41.9594 10.4806L39.7648 14.1739C39.9829 14.6458 40.1817 15.1206 40.3583 15.594L44.5161 16.652ZM10.3871 22.2581C10.3871 28.8138 15.7023 34.129 22.2581 34.129C28.8138 34.129 34.129 28.8138 34.129 22.2581C34.129 15.7023 28.8138 10.3871 22.2581 10.3871C15.7023 10.3871 10.3871 15.7023 10.3871 22.2581Z" fill="#307A49"/>
<path d="M47.4839 32.6451H68.2581V46H47.4839V32.6451Z" fill="#307A49"/>
<path fill-rule="evenodd" clip-rule="evenodd" d="M35.6129 22.258C35.6129 29.621 29.6225 35.6129 22.2581 35.6129C14.8936 35.6129 8.90323 29.621 8.90323 22.258C8.90323 14.8951 14.8936 8.9032 22.2581 8.9032C29.6225 8.9032 35.6129 14.8951 35.6129 22.258ZM32.6452 22.258C32.6452 16.5303 27.9843 11.8709 22.2581 11.8709C16.5318 11.8709 11.871 16.5303 11.871 22.258C11.871 27.9858 16.5318 32.6451 22.2581 32.6451C27.9843 32.6451 32.6452 27.9858 32.6452 22.258Z" fill="#5BCF81"/>
<path fill-rule="evenodd" clip-rule="evenodd" d="M84.5806 77.1613H42.6821L34.7938 81.1054C33.4687 81.7672 32.6452 83.0997 32.6452 84.5806C32.6452 86.0615 33.4687 87.394 34.7923 88.0558L42.6821 92H84.5806C88.6717 92 92 88.6716 92 84.5806C92 80.4896 88.6717 77.1613 84.5806 77.1613ZM44.5161 86.0645H80.129V89.0322H44.5161V86.0645ZM44.5161 83.0967H80.129V80.129H44.5161V83.0967ZM35.6129 84.5806C35.6129 84.2304 35.8073 83.9173 36.1204 83.76L41.5484 81.046V88.1152L36.1204 85.4012C35.8073 85.2439 35.6129 84.9308 35.6129 84.5806ZM83.0968 89.0322H84.5806C87.035 89.0322 89.0323 87.0349 89.0323 84.5806C89.0323 82.1263 87.035 80.129 84.5806 80.129H83.0968V89.0322Z" fill="#5BCF81"/>
<path fill-rule="evenodd" clip-rule="evenodd" d="M77.1613 20.7741H76.9506C76.2873 18.2219 73.9843 16.3225 71.2258 16.3225C68.4673 16.3225 66.1643 18.2219 65.501 20.7741H47.4839V23.7419H65.501C66.1643 26.2941 68.4673 28.1935 71.2258 28.1935C73.9843 28.1935 76.2873 26.2941 76.9506 23.7419H77.1613C83.7066 23.7419 89.0323 29.0675 89.0323 35.6128V44.5161C89.0323 51.0614 83.7066 56.387 77.1613 56.387H72.499C71.8357 53.8348 69.5327 51.9354 66.7742 51.9354C64.0157 51.9354 61.7127 53.8348 61.0494 56.387H51.7248C51.0615 53.8348 48.7585 51.9354 46 51.9354C43.2415 51.9354 40.9385 53.8348 40.2752 56.387H30.9506C30.2873 53.8348 27.9843 51.9354 25.2258 51.9354C22.4673 51.9354 20.1643 53.8348 19.501 56.387H14.8387C6.65665 56.387 0 63.0437 0 71.2257C0 79.4078 6.65665 86.0644 14.8387 86.0644H29.6774V83.0967H14.8387C8.29335 83.0967 2.96774 77.7711 2.96774 71.2257C2.96774 64.6804 8.29335 59.3548 14.8387 59.3548H19.501C20.1643 61.907 22.4673 63.8064 25.2258 63.8064C27.9843 63.8064 30.2873 61.907 30.9506 59.3548H40.2752C40.9385 61.907 43.2415 63.8064 46 63.8064C48.7585 63.8064 51.0615 61.907 51.7248 59.3548H61.0494C61.7127 61.907 64.0157 63.8064 66.7742 63.8064C69.5327 63.8064 71.8357 61.907 72.499 59.3548H77.1613C85.3434 59.3548 92 52.6981 92 44.5161V35.6128C92 27.4308 85.3434 20.7741 77.1613 20.7741ZM71.2258 25.2257C69.5891 25.2257 68.2581 23.8947 68.2581 22.258C68.2581 20.6213 69.5891 19.2903 71.2258 19.2903C72.8625 19.2903 74.1936 20.6213 74.1936 22.258C74.1936 23.8947 72.8625 25.2257 71.2258 25.2257ZM22.2581 57.8709C22.2581 59.5076 23.5891 60.8386 25.2258 60.8386C26.8625 60.8386 28.1935 59.5076 28.1935 57.8709C28.1935 56.2342 26.8625 54.9032 25.2258 54.9032C23.5891 54.9032 22.2581 56.2342 22.2581 57.8709ZM46 60.8386C44.3633 60.8386 43.0323 59.5076 43.0323 57.8709C43.0323 56.2342 44.3633 54.9032 46 54.9032C47.6367 54.9032 48.9677 56.2342 48.9677 57.8709C48.9677 59.5076 47.6367 60.8386 46 60.8386ZM63.8064 57.8709C63.8064 59.5076 65.1375 60.8386 66.7742 60.8386C68.4109 60.8386 69.7419 59.5076 69.7419 57.8709C69.7419 56.2342 68.4109 54.9032 66.7742 54.9032C65.1375 54.9032 63.8064 56.2342 63.8064 57.8709Z" fill="#5BCF81"/>
<path d="M47.4839 31.1613H68.2581V34.129H47.4839V31.1613Z" fill="#5BCF81"/>
<path d="M47.4839 37.0968H68.2581V40.0645H47.4839V37.0968Z" fill="#5BCF81"/>
<path d="M53.4194 43.0322H56.3871V46H53.4194V43.0322Z" fill="#5BCF81"/>
<path d="M47.4839 43.0322H50.4516V46H47.4839V43.0322Z" fill="#5BCF81"/>
<path d="M65.2903 43.0322H68.2581V46H65.2903V43.0322Z" fill="#5BCF81"/>
<path d="M59.3548 43.0322H62.3226V46H59.3548V43.0322Z" fill="#5BCF81"/>
<path d="M11.871 69.7419H14.8387V72.7097H11.871V69.7419Z" fill="#5BCF81"/>
<path d="M17.8065 69.7419H20.7742V72.7097H17.8065V69.7419Z" fill="#5BCF81"/>
<path d="M23.7419 69.7419H26.7097V72.7097H23.7419V69.7419Z" fill="#5BCF81"/>
<path d="M5.93549 69.7419H8.90323V72.7097H5.93549V69.7419Z" fill="#5BCF81"/>
</svg>
