<svg width="88" height="88" viewBox="0 0 88 88" fill="none" xmlns="http://www.w3.org/2000/svg">
<path fill-rule="evenodd" clip-rule="evenodd" d="M68.129 9.93548C68.129 15.4128 72.5872 19.871 78.0645 19.871C83.5418 19.871 88 15.4128 88 9.93548C88 4.45819 83.5418 0 78.0645 0C72.5872 0 68.129 4.45819 68.129 9.93548ZM75.2258 9.93548C75.2258 8.36994 76.499 7.09677 78.0645 7.09677C79.6301 7.09677 80.9032 8.36994 80.9032 9.93548C80.9032 11.501 79.6301 12.7742 78.0645 12.7742C76.499 12.7742 75.2258 11.501 75.2258 9.93548Z" fill="#A07044"/>
<path d="M5.67741 7.0968H19.871V14.1936H5.67741V7.0968Z" fill="#5D3D20"/>
<path d="M11.3548 45.4194C7.44168 45.4194 4.25807 42.2358 4.25807 38.3226C4.25807 34.4094 7.44168 31.2258 11.3548 31.2258C15.268 31.2258 18.4516 34.4094 18.4516 38.3226C18.4516 42.2358 15.268 45.4194 11.3548 45.4194Z" fill="#A07044"/>
<path fill-rule="evenodd" clip-rule="evenodd" d="M82.3226 9.93543C82.3226 12.283 80.4121 14.1935 78.0645 14.1935C75.7169 14.1935 73.8065 12.283 73.8065 9.93543C73.8065 7.58782 75.7169 5.67737 78.0645 5.67737C80.4121 5.67737 82.3226 7.58782 82.3226 9.93543ZM79.4839 9.93543C79.4839 9.15195 78.848 8.51608 78.0645 8.51608C77.281 8.51608 76.6452 9.15195 76.6452 9.93543C76.6452 10.7189 77.281 11.3548 78.0645 11.3548C78.848 11.3548 79.4839 10.7189 79.4839 9.93543Z" fill="#CD8A4E"/>
<path d="M5.67741 5.67737H19.871V8.51608H5.67741V5.67737Z" fill="#CD8A4E"/>
<path d="M5.67741 11.3549H14.1935V14.1936H5.67741V11.3549Z" fill="#CD8A4E"/>
<path d="M17.0323 11.3549H19.871V14.1936H17.0323V11.3549Z" fill="#CD8A4E"/>
<path fill-rule="evenodd" clip-rule="evenodd" d="M88 46.129V31.9355H68.129V37.6129H63.0932L53.8432 14.8734L57.3618 11.3548H68.2426C68.1759 10.8893 68.129 10.4181 68.129 9.93548C68.129 9.4529 68.1759 8.98168 68.2426 8.51613H56.1866L52.6836 12.0191L49.2232 3.51432C48.3532 1.37961 46.3036 0 44 0C41.6964 0 39.6468 1.37961 38.7754 3.51432L35.315 12.0191L31.8134 8.51613H25.5484V0H0V19.871H25.5484V11.3548H30.6382L34.1554 14.872L25.1935 36.9032H18.3083C18.4019 37.3617 18.4516 37.8372 18.4516 38.3226C18.4516 38.808 18.4019 39.2835 18.3083 39.7419H24.0396L5.78103 84.6262L5.67742 84.8845V88H82.3226V84.8845L64.2485 40.4516H68.129V46.129H88ZM22.7097 17.0323H2.83871V2.83871H22.7097V17.0323ZM50.5035 14.1978L46.5932 4.5831C46.3561 4.00116 45.9332 3.54839 45.4194 3.24465V28.3871H56.276L51.6631 17.0521L49.2601 19.4551L47.2532 17.4481L50.5035 14.1978ZM37.4951 14.1978L41.4054 4.58452C41.6425 4.00116 42.0654 3.54839 42.5806 3.24465V28.3871H31.7226L36.3341 17.0507L38.7384 19.4551L40.7454 17.4481L37.4951 14.1978ZM28.2579 36.9032H31.1037L39.3261 45.1255L37.3191 47.1325L29.9285 39.7419H27.104L20.1761 56.7742H42.5806V31.2258H30.5672L28.2579 36.9032ZM19.0208 59.6129H42.5806V85.1613H8.62826L19.0208 59.6129ZM45.4194 59.6129V85.1613H79.3717L68.9792 59.6129H45.4194ZM67.8239 56.7742H45.4194V31.2258H57.4314L60.0302 37.6129H56.8977L48.6754 45.8352L50.6823 47.8422L58.0729 40.4516H61.1855L67.8239 56.7742ZM85.1613 34.7742H70.9677V43.2903H85.1613V34.7742Z" fill="#CD8A4E"/>
<path d="M73.8065 37.6129H82.3226V40.4516H73.8065V37.6129Z" fill="#CD8A4E"/>
<path d="M48.2581 62.4517H51.0968V65.2904H48.2581V62.4517Z" fill="#CD8A4E"/>
<path d="M53.9355 62.4517H56.7742V65.2904H53.9355V62.4517Z" fill="#CD8A4E"/>
<path d="M59.6129 62.4517H62.4516V65.2904H59.6129V62.4517Z" fill="#CD8A4E"/>
<path d="M12.7742 79.4839H15.6129V82.3226H12.7742V79.4839Z" fill="#CD8A4E"/>
<path d="M24.129 79.4839H26.9677V82.3226H24.129V79.4839Z" fill="#CD8A4E"/>
<path d="M18.4516 79.4839H21.2903V82.3226H18.4516V79.4839Z" fill="#CD8A4E"/>
</svg>
