<svg width="100" height="100" viewBox="0 0 100 100" fill="none" xmlns="http://www.w3.org/2000/svg">
<path d="M87.8087 24.9728C86.595 24.9718 85.3884 25.1574 84.2312 25.5233C84.341 24.6512 84.3965 23.7728 84.3975 22.8938C84.1815 10.0358 73.583 -0.212655 60.7247 0.00335284C51.342 0.160941 42.9707 5.93558 39.4911 14.651C32.7617 10.4782 23.9239 12.551 19.7514 19.2803C18.3929 21.4709 17.6503 23.9873 17.6017 26.5645C15.79 25.5185 13.7343 24.9693 11.6424 24.9728C5.21247 24.9728 0 30.1853 0 36.6152C0 43.0451 5.21247 48.2576 11.6424 48.2576C12.5609 48.2576 13.3056 47.5129 13.3056 46.5944C13.3056 45.6759 12.5609 44.9312 11.6424 44.9312C7.0501 44.8566 3.38794 41.0734 3.46258 36.4811C3.53721 31.8888 7.32037 28.2266 11.9127 28.3013C14.7081 28.3468 17.2936 29.7938 18.7942 32.1526C19.2973 32.9212 20.3281 33.1364 21.0967 32.6335C21.7609 32.1988 22.0254 31.3553 21.7281 30.6192C21.2044 29.356 20.931 28.0031 20.9231 26.6358C20.9898 20.6083 25.9227 15.7724 31.9501 15.825C34.6358 15.8356 37.2266 16.8187 39.2432 18.5925C39.9356 19.1963 40.9863 19.1244 41.5898 18.432C41.7534 18.2445 41.8728 18.0225 41.9393 17.7826C44.9825 7.19296 56.0341 1.07549 66.6235 4.11874C75.0314 6.53495 80.8844 14.147 81.0595 22.8936C81.0524 24.637 80.8089 26.3715 80.336 28.0495C80.09 28.9345 80.6079 29.8514 81.4929 30.0973C81.9717 30.2304 82.485 30.1424 82.8923 29.8574C84.331 28.8429 86.0484 28.2986 87.8087 28.299C92.4015 28.299 96.1247 32.0223 96.1247 36.615C96.1247 41.2077 92.4015 44.931 87.8087 44.931C86.8902 44.931 86.1455 45.6757 86.1455 46.5942C86.1455 47.5127 86.8902 48.2574 87.8087 48.2574C94.2387 48.2574 99.4511 43.0449 99.4511 36.615C99.4511 30.1853 94.2387 24.9728 87.8087 24.9728Z" fill="#67A4EB"/>
<path fill-rule="evenodd" clip-rule="evenodd" d="M21.447 63.2264H77.9959C80.7516 63.2264 82.9855 65.4603 82.9855 68.216V74.8689C82.9855 77.6246 80.7516 79.8585 77.9959 79.8585H21.447C18.6913 79.8585 16.4574 77.6246 16.4574 74.8689V68.216C16.4574 65.4603 18.6913 63.2264 21.447 63.2264ZM77.9959 76.5321C78.9144 76.5321 79.6591 75.7874 79.6591 74.8689V68.216C79.6591 67.2975 78.9144 66.5528 77.9959 66.5528H21.447C20.5285 66.5528 19.7838 67.2975 19.7838 68.216V74.8689C19.7838 75.7874 20.5285 76.5321 21.447 76.5321H77.9959Z" fill="#67A4EB"/>
<path fill-rule="evenodd" clip-rule="evenodd" d="M70.1788 71.5423C70.1788 69.7699 71.6097 68.3302 73.3821 68.3192C75.1623 68.3082 76.6143 69.7423 76.6253 71.5223C76.6364 73.3026 75.2023 74.7546 73.422 74.7656C71.6374 74.7683 70.1871 73.3269 70.1788 71.5423ZM73.3389 71.5425C73.3389 71.5924 73.3721 71.6473 73.422 71.6473V71.4394L73.3389 71.5425Z" fill="#67A4EB"/>
<path d="M56.0416 69.8793H24.4407C23.5222 69.8793 22.7775 70.624 22.7775 71.5425C22.7775 72.461 23.5222 73.2057 24.4407 73.2057H56.0416C56.9601 73.2057 57.7048 72.461 57.7048 71.5425C57.7048 70.624 56.9603 69.8793 56.0416 69.8793Z" fill="#67A4EB"/>
<path d="M66.3119 69.8793H61.8878C60.9692 69.8793 60.2245 70.624 60.2245 71.5425C60.2245 72.461 60.9692 73.2057 61.8878 73.2057H66.3119C67.2304 73.2057 67.9751 72.461 67.9751 71.5425C67.9751 70.624 67.2306 69.8793 66.3119 69.8793Z" fill="#67A4EB"/>
<path fill-rule="evenodd" clip-rule="evenodd" d="M21.447 83.1848H77.9959C80.7516 83.1848 82.9855 85.4187 82.9855 88.1744V94.8272C82.9855 97.5829 80.7516 99.8168 77.9959 99.8168H21.447C18.6913 99.8168 16.4574 97.5829 16.4574 94.8272V88.1744C16.4574 85.4187 18.6913 83.1848 21.447 83.1848ZM77.9959 96.4904C78.9144 96.4904 79.6591 95.7457 79.6591 94.8272V88.1744C79.6591 87.2559 78.9144 86.5112 77.9959 86.5112H21.447C20.5285 86.5112 19.7838 87.2559 19.7838 88.1744V94.8272C19.7838 95.7457 20.5285 96.4904 21.447 96.4904H77.9959Z" fill="#67A4EB"/>
<path fill-rule="evenodd" clip-rule="evenodd" d="M70.1788 91.5007C70.1788 89.7283 71.6097 88.2886 73.3821 88.2776C75.1623 88.2666 76.6143 89.7007 76.6253 91.4807C76.6364 93.261 75.2023 94.7129 73.422 94.724C71.6374 94.7267 70.1871 93.2853 70.1788 91.5007ZM73.3389 91.5009C73.3389 91.5508 73.3721 91.6057 73.422 91.6057V91.3978L73.3389 91.5009Z" fill="#67A4EB"/>
<path d="M56.0416 89.8376H24.4407C23.5222 89.8376 22.7775 90.5823 22.7775 91.5008C22.7775 92.4194 23.5222 93.164 24.4407 93.164H56.0416C56.9601 93.164 57.7048 92.4194 57.7048 91.5008C57.7048 90.5823 56.9603 89.8376 56.0416 89.8376Z" fill="#67A4EB"/>
<path d="M66.3119 89.8376H61.8878C60.9692 89.8376 60.2245 90.5823 60.2245 91.5008C60.2245 92.4194 60.9692 93.164 61.8878 93.164H66.3119C67.2304 93.164 67.9751 92.4194 67.9751 91.5008C67.9751 90.5823 67.2306 89.8376 66.3119 89.8376Z" fill="#67A4EB"/>
<path fill-rule="evenodd" clip-rule="evenodd" d="M21.447 43.2681H77.9959C80.7516 43.2681 82.9855 45.502 82.9855 48.2577V54.9105C82.9855 57.6662 80.7516 59.9001 77.9959 59.9001H21.447C18.6913 59.9001 16.4574 57.6662 16.4574 54.9105V48.2577C16.4574 45.502 18.6913 43.2681 21.447 43.2681ZM77.9959 56.5737C78.9144 56.5737 79.6591 55.829 79.6591 54.9105V48.2577C79.6591 47.3392 78.9144 46.5945 77.9959 46.5945H21.447C20.5285 46.5945 19.7838 47.3392 19.7838 48.2577V54.9105C19.7838 55.829 20.5285 56.5737 21.447 56.5737H77.9959Z" fill="#67A4EB"/>
<path fill-rule="evenodd" clip-rule="evenodd" d="M72.3235 48.511C74.0904 48.1905 75.7825 49.363 76.1031 51.13C76.2561 51.9709 76.063 52.8381 75.5676 53.535C75.0721 54.2447 74.311 54.7246 73.457 54.8655C73.2777 54.8952 73.0965 54.9102 72.9148 54.9104C71.3416 54.909 69.9946 53.7826 69.7148 52.2343C69.5636 51.3938 69.7565 50.5279 70.2503 49.831C70.742 49.1368 71.4863 48.6628 72.3235 48.511ZM72.9048 51.584L72.8299 51.7154C72.8333 51.7503 72.8382 51.7919 72.9131 51.7919L72.9048 51.584Z" fill="#67A4EB"/>
<path d="M55.7089 49.9208H24.1081C23.1896 49.9208 22.4449 50.6655 22.4449 51.584C22.4449 52.5025 23.1896 53.2472 24.1081 53.2472H55.7089C56.6274 53.2472 57.3721 52.5025 57.3721 51.584C57.3721 50.6655 56.6276 49.9208 55.7089 49.9208Z" fill="#67A4EB"/>
<path d="M65.2491 49.9208H60.8249C59.9064 49.9208 59.1617 50.6655 59.1617 51.584C59.1617 52.5025 59.9064 53.2472 60.8249 53.2472H65.2491C66.1676 53.2472 66.9123 52.5025 66.9123 51.584C66.9123 50.6655 66.1678 49.9208 65.2491 49.9208Z" fill="#67A4EB"/>
<path d="M42.5813 27.1233L37.5917 22.1337C36.9422 21.4844 35.8894 21.4844 35.2399 22.1337L30.2503 27.1233C29.6123 27.784 29.6306 28.837 30.2913 29.4751C30.9358 30.0975 31.9576 30.0975 32.6021 29.4751L34.7526 27.3245V38.2784C34.7526 39.1969 35.4973 39.9416 36.4158 39.9416C37.3343 39.9416 38.079 39.1969 38.079 38.2784V27.3245L40.2295 29.4751C40.8902 30.1131 41.9432 30.0948 42.5813 29.4341C43.2037 28.7896 43.2037 27.7678 42.5813 27.1233Z" fill="#67A4EB"/>
<path d="M69.1518 32.1129C68.5073 31.4904 67.4855 31.4904 66.8408 32.1129L64.6902 34.2634V23.3096C64.6902 22.3911 63.9455 21.6464 63.027 21.6464C62.1085 21.6464 61.3638 22.3911 61.3638 23.3096V34.2634L59.2133 32.1129C58.5526 31.4746 57.4998 31.4929 56.8616 32.1536C56.2391 32.7981 56.2391 33.82 56.8616 34.4647L61.8512 39.4543C62.5006 40.1035 63.5534 40.1035 64.2029 39.4543L69.1925 34.4647C69.8308 33.804 69.8125 32.7509 69.1518 32.1129Z" fill="#67A4EB"/>
</svg>
