<svg width="101" height="101" viewBox="0 0 101 101" fill="none" xmlns="http://www.w3.org/2000/svg">
<path fill-rule="evenodd" clip-rule="evenodd" d="M38.9113 11.2903C38.9113 17.5145 43.9758 22.5806 50.2016 22.5806C56.4274 22.5806 61.4919 17.5145 61.4919 11.2903C61.4919 5.06613 56.4274 0 50.2016 0C43.9758 0 38.9113 5.06613 38.9113 11.2903ZM46.9758 11.2903C46.9758 9.51129 48.4226 8.06452 50.2016 8.06452C51.9806 8.06452 53.4274 9.51129 53.4274 11.2903C53.4274 13.0694 51.9806 14.5161 50.2016 14.5161C48.4226 14.5161 46.9758 13.0694 46.9758 11.2903Z" fill="#777749"/>
<path fill-rule="evenodd" clip-rule="evenodd" d="M1.7129 74.9984C3.8016 78.6161 7.60322 80.6419 11.5097 80.6419C13.4226 80.6419 15.3613 80.1548 17.1371 79.1322C22.529 76.0177 24.3822 69.1 21.271 63.708C19.7629 61.0968 17.3274 59.2258 14.4145 58.4468C11.5016 57.6629 8.45967 58.0645 5.84677 59.5742C0.454831 62.6887 -1.3984 69.6064 1.7129 74.9984ZM9.88064 66.5629C10.3774 66.2758 10.9274 66.129 11.4855 66.129C11.7645 66.129 12.0468 66.1661 12.3242 66.2419C13.1548 66.4645 13.8484 66.9968 14.279 67.7419C15.1661 69.279 14.6371 71.2516 13.1 72.1403C11.5629 73.0274 9.5887 72.4984 8.7016 70.9613C7.81451 69.4242 8.34354 67.4516 9.88064 66.5629Z" fill="#777749"/>
<path fill-rule="evenodd" clip-rule="evenodd" d="M83.2677 79.1307C85.0403 80.1549 86.979 80.642 88.8935 80.642C92.8 80.642 96.6032 78.6161 98.6919 74.9968C101.803 69.6049 99.9484 62.6871 94.5581 59.5726C91.9468 58.0661 88.9048 57.6613 85.9903 58.4452C83.0774 59.2258 80.6419 61.0952 79.1339 63.7065C76.0226 69.0984 77.8774 76.0162 83.2677 79.1307ZM91.7016 70.9629C90.8145 72.5016 88.8403 73.0307 87.3016 72.142C85.7645 71.2532 85.2355 69.2791 86.1226 67.742C86.5532 66.9952 87.2484 66.4629 88.079 66.2403C88.9081 66.0194 89.7774 66.1323 90.5226 66.5629C92.0613 67.4516 92.5903 69.4242 91.7016 70.9629Z" fill="#777749"/>
<path fill-rule="evenodd" clip-rule="evenodd" d="M55.0403 11.2904C55.0403 13.9581 52.8694 16.1291 50.2016 16.1291C47.5339 16.1291 45.3629 13.9581 45.3629 11.2904C45.3629 8.62263 47.5339 6.45166 50.2016 6.45166C52.8694 6.45166 55.0403 8.62263 55.0403 11.2904ZM51.8145 11.2904C51.8145 10.4 51.0903 9.67747 50.2016 9.67747C49.3129 9.67747 48.5887 10.4 48.5887 11.2904C48.5887 12.1807 49.3129 12.9033 50.2016 12.9033C51.0903 12.9033 51.8145 12.1807 51.8145 11.2904Z" fill="#DDCC52"/>
<path fill-rule="evenodd" clip-rule="evenodd" d="M7.30001 71.7726C5.96775 69.4613 6.7613 66.4968 9.07259 65.1613C11.3807 63.8291 14.3468 64.6242 15.6823 66.9339C17.0145 69.2452 16.221 72.2097 13.9113 73.5452C13.15 73.9823 12.3194 74.1904 11.5 74.1904C9.8242 74.1904 8.19517 73.3226 7.30001 71.7726ZM10.0952 70.1597C10.5387 70.9291 11.5258 71.1968 12.2984 70.75C13.0661 70.3065 13.3323 69.3178 12.8871 68.5468C12.4436 67.7791 11.4549 67.5113 10.6855 67.9565C9.91614 68.4 9.65001 69.3887 10.0952 70.1597Z" fill="#DDCC52"/>
<path fill-rule="evenodd" clip-rule="evenodd" d="M84.721 66.9339C86.0549 64.6259 89.021 63.8307 91.3307 65.1614C93.642 66.4985 94.4371 69.4614 93.1032 71.7726C92.2081 73.3226 90.5774 74.1904 88.9032 74.1904C88.0839 74.1904 87.2532 73.9823 86.4936 73.5452H86.492C84.1823 72.2097 83.3871 69.2452 84.721 66.9339ZM88.1081 70.7501C88.8758 71.1968 89.8661 70.9307 90.3097 70.1597C90.7549 69.3888 90.4887 68.4001 89.7194 67.9565C88.95 67.5081 87.9613 67.7759 87.5178 68.5468C87.0726 69.3162 87.3371 70.3065 88.1081 70.7501Z" fill="#DDCC52"/>
<path fill-rule="evenodd" clip-rule="evenodd" d="M99.121 25.0001C98.0435 23.1355 96.3048 21.8017 94.2242 21.2436C92.1451 20.6807 89.971 20.9726 88.1048 22.0484C86.2387 23.1259 84.9048 24.8646 84.3468 26.9452C83.9742 28.3339 84.0113 29.7565 84.3758 31.1081L67.9435 39.3259V29.0323H51.8145V22.4517C51.2855 22.5275 50.75 22.5807 50.2016 22.5807C49.6532 22.5807 49.1177 22.5275 48.5887 22.4517V29.0323H32.4597V39.3242L16.0274 31.1081C16.3919 29.7565 16.429 28.3339 16.0564 26.9452C15.4984 24.8646 14.1645 23.1259 12.2984 22.0484C10.4322 20.9726 8.25805 20.6807 6.17902 21.2436C4.09837 21.8017 2.35966 23.1355 1.28225 25.0001C0.204826 26.8646 -0.0822707 29.0388 0.475794 31.1194C1.03386 33.2001 2.36773 34.9388 4.23386 36.0162C5.47741 36.7323 6.85483 37.1 8.25321 37.1C8.95483 37.1 9.65967 37.0081 10.3532 36.821C12.0613 36.363 13.5145 35.3613 14.5839 33.9936L32.4597 42.9307V57.0646L20.7581 62.9146C20.9355 63.171 21.1097 63.4323 21.2677 63.7065C21.6581 64.3823 21.9693 65.0839 22.2064 65.7968L32.4597 60.6726V70.9678H48.5887V84.0339C44.9129 84.7839 42.1371 88.0404 42.1371 91.9355C42.1371 96.3823 45.7548 100 50.2016 100C54.6484 100 58.2661 96.3823 58.2661 91.9355C58.2661 88.042 55.4903 84.7839 51.8145 84.0339V70.9678H67.9435V60.6726L78.1952 65.7984C78.4323 65.0839 78.7435 64.3839 79.1339 63.7081C79.2919 63.4339 79.4661 63.1726 79.6435 62.9162L67.9435 57.0662V42.9323L85.8177 33.9936C86.8887 35.3613 88.3419 36.363 90.05 36.821C90.7451 37.0081 91.45 37.1 92.15 37.1C93.5468 37.1 94.9258 36.7323 96.1693 36.0162C98.0355 34.9388 99.3693 33.2001 99.9274 31.1194C100.485 29.0388 100.198 26.8646 99.121 25.0001ZM12.4564 31.4517C11.1226 33.763 8.15644 34.5581 5.84676 33.2226C4.72741 32.5775 3.92741 31.5323 3.59192 30.2855C3.25805 29.0371 3.42902 27.7339 4.07579 26.6146C4.97095 25.0646 6.59999 24.1968 8.27418 24.1968C9.09515 24.1968 9.92579 24.4049 10.6855 24.8436C11.8048 25.4888 12.6048 26.5339 12.9403 27.7807C13.2742 29.0291 13.1032 30.3323 12.4564 31.4517ZM50.2016 96.7742C52.8693 96.7742 55.0403 94.6033 55.0403 91.9355C55.0403 89.2678 52.8693 87.0968 50.2016 87.0968C47.5339 87.0968 45.3629 89.2678 45.3629 91.9355C45.3629 94.6033 47.5339 96.7742 50.2016 96.7742ZM64.7177 67.742H35.6855V32.2581H64.7177V67.742ZM94.5564 33.221C95.6758 32.5759 96.4758 31.5307 96.8113 30.2839C97.1451 29.0355 96.9742 27.7323 96.3274 26.613C95.4323 25.063 93.8032 24.1952 92.129 24.1952C91.3081 24.1952 90.4774 24.4033 89.7177 24.842C88.5984 25.4871 87.7984 26.5323 87.4629 27.7791C87.129 29.0275 87.3016 30.3307 87.9468 31.4501C89.2806 33.7613 92.2468 34.5565 94.5564 33.221Z" fill="#DDCC52"/>
<path fill-rule="evenodd" clip-rule="evenodd" d="M38.9113 48.3871H61.4919V64.5161H38.9113V48.3871ZM58.1371 51.2903H42.1371V61.2903H58.1371V51.2903Z" fill="#DDCC52"/>
<path d="M38.9113 35.4839H42.1371V38.7097H38.9113V35.4839Z" fill="#DDCC52"/>
<path d="M45.3629 35.4839H61.4919V38.7097H45.3629V35.4839Z" fill="#DDCC52"/>
<path d="M38.9113 41.9355H61.4919V45.1614H38.9113V41.9355Z" fill="#DDCC52"/>
</svg>
