<svg width="101" height="100" viewBox="0 0 101 100" fill="none" xmlns="http://www.w3.org/2000/svg">
<path d="M74.1935 79.0322H96.7742V93.5484H74.1935V79.0322Z" fill="#7F2743"/>
<path d="M70.9677 8.06458H93.5484V20.9678H70.9677V8.06458Z" fill="#7F2743"/>
<path d="M8.06452 20.8064C5.39678 20.8064 3.22581 18.6355 3.22581 15.9677C3.22581 13.3 5.39678 11.129 8.06452 11.129C10.7323 11.129 12.9032 13.3 12.9032 15.9677C12.9032 18.6355 10.7323 20.8064 8.06452 20.8064Z" fill="#C591A1"/>
<path d="M20.9677 20.8064C18.3 20.8064 16.129 18.6355 16.129 15.9677C16.129 13.3 18.3 11.129 20.9677 11.129C23.6355 11.129 25.8064 13.3 25.8064 15.9677C25.8064 18.6355 23.6355 20.8064 20.9677 20.8064Z" fill="#C591A1"/>
<path d="M33.871 20.8064C31.2032 20.8064 29.0323 18.6355 29.0323 15.9677C29.0323 13.3 31.2032 11.129 33.871 11.129C36.5387 11.129 38.7097 13.3 38.7097 15.9677C38.7097 18.6355 36.5387 20.8064 33.871 20.8064Z" fill="#C591A1"/>
<path d="M74.1935 77.4193H96.7742V80.6451H74.1935V77.4193Z" fill="#E4638C"/>
<path d="M74.1935 83.871H96.7742V87.0968H74.1935V83.871Z" fill="#E4638C"/>
<path d="M74.1935 90.3226H77.4193V93.5484H74.1935V90.3226Z" fill="#E4638C"/>
<path d="M87.0968 90.3226H90.3226V93.5484H87.0968V90.3226Z" fill="#E4638C"/>
<path d="M80.6452 90.3226H83.871V93.5484H80.6452V90.3226Z" fill="#E4638C"/>
<path d="M93.5484 90.3226H96.7742V93.5484H93.5484V90.3226Z" fill="#E4638C"/>
<path fill-rule="evenodd" clip-rule="evenodd" d="M74.1935 58.0645H85.4839V59.6774C85.4839 62.3451 83.3129 64.5161 80.6452 64.5161H70.9677C70.9677 59.8983 70.0774 55.3822 68.321 51.0919L67.7113 49.5999L55.771 54.4806L56.3823 55.9741C57.4984 58.7048 58.0645 61.5806 58.0645 64.5161C58.0645 68.2403 57.1355 71.9338 55.379 75.1983L54.6129 76.6193L65.9806 82.7225L66.7435 81.3032C68.9968 77.1161 70.3661 72.4822 70.8016 67.7419H80.6452C85.0919 67.7419 88.7097 64.1241 88.7097 59.6774V58.0645H100V41.9354H74.1935V58.0645ZM64.6323 78.337L58.9387 75.279C60.4806 71.9193 61.2903 68.2306 61.2903 64.5161C61.2903 61.6967 60.8339 58.9274 59.9306 56.2645L65.9097 53.8209C67.1258 57.2661 67.7419 60.8548 67.7419 64.5161H64.5161V67.7419H67.571C67.2016 71.4128 66.2113 75.0096 64.6323 78.337ZM96.7742 45.1612H77.4194V54.8387H96.7742V45.1612Z" fill="#E4638C"/>
<path d="M80.6452 48.3871H93.5484V51.6129H80.6452V48.3871Z" fill="#E4638C"/>
<path fill-rule="evenodd" clip-rule="evenodd" d="M64.5161 0V11.2903H54.8387C50.3919 11.2903 46.7742 14.9081 46.7742 19.3548V30.9097C44.6774 30.2097 42.5048 29.6919 40.271 29.3903L38.6742 29.1742L36.9323 41.95L38.5323 42.1661C44.4129 42.9629 49.6629 45.9935 53.3177 50.7016L54.3048 51.9742L64.4984 44.0774L63.5097 42.8016C59.8823 38.1258 55.25 34.5113 50.0016 32.1629V19.3548C50.0016 16.6871 52.1726 14.5161 54.8403 14.5161H64.5177V29.0323H100.002V0H64.5161ZM59.9403 43.5306L54.8387 47.4806C51.0903 43.2145 46.1097 40.3387 40.5581 39.2355L41.4306 32.8435C43.2661 33.1839 45.0516 33.6839 46.7742 34.3242V38.7097H50V35.7565C53.7565 37.65 57.1387 40.2613 59.9403 43.5306ZM67.7419 25.8065H96.7742V3.22581H67.7419V25.8065Z" fill="#E4638C"/>
<path d="M70.9677 12.9032H74.1935V16.129H70.9677V12.9032Z" fill="#E4638C"/>
<path d="M77.4194 12.9032H93.5484V16.129H77.4194V12.9032Z" fill="#E4638C"/>
<path d="M70.9677 19.3549H93.5484V22.5807H70.9677V19.3549Z" fill="#E4638C"/>
<path d="M70.9677 6.45166H93.5484V9.67747H70.9677V6.45166Z" fill="#E4638C"/>
<path fill-rule="evenodd" clip-rule="evenodd" d="M51.7774 80.1226C47.4677 84.6193 41.6806 87.0967 35.4839 87.0967C23.0323 87.0967 12.9032 76.9677 12.9032 64.5161C12.9032 53.2806 21.3 43.6726 32.4355 42.1677L34.0355 41.9516L32.2935 29.1758L30.6968 29.3919C13.1968 31.758 0 46.8597 0 64.5161C0 84.0822 15.9177 100 35.4839 100C45.2258 100 54.3194 96.108 61.0903 89.0419L62.2065 87.8774L52.8935 78.9564L51.7774 80.1226ZM30.3758 89.8113C31.5129 90.0403 32.6855 90.1677 33.871 90.2419V96.6935C32.1113 96.6064 30.3806 96.4048 28.7065 96.0451L30.3758 89.8113ZM20.7871 93.1984C22.3242 93.9887 23.9242 94.6693 25.5903 95.208L27.2645 88.9597C26.1452 88.5822 25.0629 88.1242 24.0177 87.6032L20.7871 93.1984ZM37.0968 90.2484C38.279 90.1758 39.4468 90.0371 40.5903 89.808L42.2597 96.0387C40.5742 96.3984 38.85 96.6129 37.0968 96.6984V90.2484ZM17.9935 91.5822L21.2161 86.0016C20.2371 85.3484 19.3194 84.6177 18.4387 83.8419L13.879 88.4016C15.1645 89.5661 16.5323 90.6355 17.9935 91.5822ZM29.5371 32.8435L30.4097 39.2355C18.4823 41.6209 9.67742 52.2161 9.67742 64.5161C9.67742 71.0516 12.1387 77.0097 16.1581 81.5613L11.5984 86.1209C6.41452 80.3951 3.22581 72.8306 3.22581 64.5161C3.22581 49.0048 14.4274 35.6661 29.5371 32.8435ZM45.3758 95.2016C49.8984 93.7451 54.0726 91.308 57.6177 87.9484L52.9565 83.4822C50.2532 85.9822 47.1048 87.8161 43.7032 88.9597L45.3758 95.2016Z" fill="#E4638C"/>
</svg>
