<svg width="360" height="200" viewBox="0 0 360 200" fill="none" xmlns="http://www.w3.org/2000/svg">
<path d="M0 12C0 5.37258 5.37258 0 12 0H348C354.627 0 360 5.37258 360 12V200H0V12Z" fill="#424864"/>
<path d="M0 12C0 5.37258 5.37258 0 12 0H348C354.627 0 360 5.37258 360 12V200H0V12Z" fill="#424864"/>
<mask id="mask0" mask-type="alpha" maskUnits="userSpaceOnUse" x="0" y="0" width="360" height="200">
<path d="M0 12C0 5.37258 5.37258 0 12 0H348C354.627 0 360 5.37258 360 12V200H0V12Z" fill="white"/>
</mask>
<g mask="url(#mask0)">
<path fill-rule="evenodd" clip-rule="evenodd" d="M180 151C229.153 151 269 111.153 269 62C269 12.8467 229.153 -27 180 -27C130.847 -27 91 12.8467 91 62C91 111.153 130.847 151 180 151Z" fill="#3A405B"/>
<rect opacity="0.275158" x="180" y="20.3116" width="322" height="322" rx="32" transform="rotate(45 180 20.3116)" fill="#222428"/>
<path fill-rule="evenodd" clip-rule="evenodd" d="M38 42C41.3137 42 44 39.3137 44 36C44 32.6863 41.3137 30 38 30C34.6863 30 32 32.6863 32 36C32 39.3137 34.6863 42 38 42Z" fill="#DDCC52"/>
</g>
</svg>
