<svg width="420" height="282" viewBox="0 0 420 282" fill="none" xmlns="http://www.w3.org/2000/svg">
<g clip-path="url(#clip0)">
<rect x="-2" y="-1.12134" width="424" height="284.293" fill="#12161D" stroke="#E6E8EF" stroke-width="4"/>
<rect x="333.649" y="-1.12134" width="88.3515" height="228.059" stroke="#E6E8EF" stroke-width="4"/>
<rect x="351.222" y="226.452" width="70.7782" height="55.841" stroke="#E6E8EF" stroke-width="4"/>
<rect x="333.649" y="226.452" width="17.1799" height="55.841" fill="#E6E8EF" stroke="#E6E8EF" stroke-width="4"/>
<path d="M0 140.805L313.682 141.245" stroke="#6B778D" stroke-width="4"/>
<path d="M362.008 250.638H420" stroke="#6B778D" stroke-width="2"/>
<path d="M377.824 0.499712L376.946 210.379" stroke="#6B778D" stroke-width="3"/>
<path fill-rule="evenodd" clip-rule="evenodd" d="M331.255 140.973L311.046 160.795V121.255L331.255 140.973Z" fill="#6B778D"/>
<path fill-rule="evenodd" clip-rule="evenodd" d="M353.222 250.396L362.008 259.205V241.632L353.222 250.396Z" fill="#6B778D"/>
<path fill-rule="evenodd" clip-rule="evenodd" d="M376.982 224.937L362.887 210.879H391.004L376.982 224.937Z" fill="#6B778D"/>
<path d="M66.5688 127.945H65.1547L66.8032 118.452L63.7094 119.577L63.9594 118.195L68.35 116.57H68.4985L66.5688 127.945ZM77.2875 125.648C77.3188 125.408 77.2797 125.21 77.1703 125.054C77.061 124.898 76.9151 124.77 76.7328 124.671C76.5558 124.572 76.3605 124.494 76.1469 124.437C75.9334 124.374 75.7407 124.322 75.5688 124.281C75.2563 124.202 74.9308 124.106 74.5922 123.991C74.2537 123.877 73.9438 123.728 73.6625 123.546C73.3813 123.364 73.1521 123.137 72.975 122.866C72.8032 122.59 72.725 122.257 72.7407 121.866C72.7511 121.58 72.8084 121.32 72.9125 121.085C73.0219 120.846 73.1625 120.632 73.3344 120.445C73.5063 120.252 73.7042 120.085 73.9282 119.945C74.1573 119.804 74.3969 119.689 74.6469 119.601C74.9021 119.507 75.1599 119.439 75.4203 119.398C75.686 119.351 75.9464 119.33 76.2016 119.335C76.5974 119.346 76.9776 119.408 77.3422 119.523C77.712 119.637 78.0349 119.807 78.311 120.031C78.587 120.249 78.8058 120.523 78.9672 120.851C79.1287 121.174 79.2068 121.551 79.2016 121.984L77.8032 121.976C77.8032 121.741 77.7589 121.536 77.6703 121.359C77.5818 121.182 77.4594 121.033 77.3032 120.913C77.1521 120.788 76.975 120.695 76.7719 120.632C76.574 120.57 76.3657 120.536 76.1469 120.531C75.9386 120.525 75.7224 120.546 75.4985 120.593C75.2797 120.64 75.074 120.715 74.8813 120.82C74.6886 120.919 74.5245 121.051 74.3891 121.218C74.2537 121.379 74.1703 121.577 74.1391 121.812C74.1078 122.046 74.1443 122.239 74.2485 122.39C74.3578 122.536 74.4985 122.653 74.6703 122.741C74.8422 122.83 75.0297 122.9 75.2328 122.952C75.4412 123.004 75.6313 123.049 75.8032 123.085C76.0167 123.137 76.2381 123.197 76.4672 123.265C76.6964 123.333 76.9203 123.413 77.1391 123.507C77.3578 123.601 77.5636 123.71 77.7563 123.835C77.9542 123.955 78.1235 124.098 78.2641 124.265C78.4047 124.426 78.5141 124.614 78.5922 124.827C78.6703 125.041 78.7042 125.281 78.6938 125.546C78.673 125.999 78.548 126.39 78.3188 126.718C78.0896 127.046 77.8032 127.314 77.4594 127.523C77.1157 127.726 76.7355 127.874 76.3188 127.968C75.9021 128.067 75.4959 128.111 75.1 128.101C74.6834 128.096 74.2797 128.033 73.8891 127.913C73.5037 127.794 73.1599 127.619 72.8578 127.39C72.5558 127.156 72.3136 126.869 72.1313 126.531C71.9542 126.187 71.8709 125.788 71.8813 125.335L73.2875 125.343C73.2927 125.614 73.3448 125.848 73.4438 126.046C73.5427 126.244 73.6756 126.408 73.8422 126.538C74.0089 126.663 74.2042 126.76 74.4282 126.827C74.6521 126.89 74.8917 126.921 75.1469 126.921C75.3552 126.926 75.5766 126.908 75.811 126.866C76.0453 126.825 76.2667 126.757 76.475 126.663C76.6834 126.564 76.8605 126.432 77.0063 126.265C77.1573 126.098 77.2511 125.892 77.2875 125.648ZM85.9438 117.445L85.5844 119.491H88.7094L88.5141 120.609H85.3891L84.6235 125.21C84.5974 125.439 84.5974 125.653 84.6235 125.851C84.6547 126.049 84.7146 126.221 84.8032 126.366C84.8917 126.512 85.0167 126.629 85.1782 126.718C85.3448 126.807 85.5532 126.853 85.8032 126.859C86.0896 126.869 86.3735 126.848 86.6547 126.796C86.9412 126.744 87.225 126.687 87.5063 126.624L87.6391 127.663C87.311 127.846 86.9464 127.965 86.5453 128.023C86.1443 128.08 85.7589 128.103 85.3891 128.093C84.9672 128.088 84.6105 128.007 84.3188 127.851C84.0271 127.689 83.7927 127.478 83.6157 127.218C83.4386 126.952 83.3162 126.648 83.2485 126.304C83.186 125.955 83.173 125.588 83.2094 125.202L83.975 120.609H81.8188L82.0141 119.491H84.1625L84.5219 117.445H85.9438ZM101.545 116.57H108.225L107.998 117.827H105.358L103.819 126.695H106.467L106.248 127.945H99.5688L99.7875 126.695H102.373L103.913 117.827H101.319L101.545 116.57ZM114.116 117.445L113.756 119.491H116.881L116.686 120.609H113.561L112.795 125.21C112.769 125.439 112.769 125.653 112.795 125.851C112.827 126.049 112.886 126.221 112.975 126.366C113.064 126.512 113.189 126.629 113.35 126.718C113.517 126.807 113.725 126.853 113.975 126.859C114.261 126.869 114.545 126.848 114.827 126.796C115.113 126.744 115.397 126.687 115.678 126.624L115.811 127.663C115.483 127.846 115.118 127.965 114.717 128.023C114.316 128.08 113.931 128.103 113.561 128.093C113.139 128.088 112.782 128.007 112.491 127.851C112.199 127.689 111.965 127.478 111.788 127.218C111.61 126.952 111.488 126.648 111.42 126.304C111.358 125.955 111.345 125.588 111.381 125.202L112.147 120.609H109.991L110.186 119.491H112.334L112.694 117.445H114.116ZM122.069 128.101C121.496 128.09 120.991 127.973 120.553 127.749C120.121 127.525 119.764 127.228 119.483 126.859C119.202 126.489 118.998 126.062 118.873 125.577C118.754 125.093 118.717 124.58 118.764 124.038L118.803 123.702C118.845 123.333 118.926 122.968 119.045 122.609C119.165 122.244 119.319 121.898 119.506 121.57C119.699 121.241 119.92 120.939 120.17 120.663C120.426 120.387 120.707 120.15 121.014 119.952C121.327 119.749 121.663 119.593 122.022 119.484C122.386 119.374 122.769 119.325 123.17 119.335C123.754 119.351 124.246 119.478 124.647 119.718C125.048 119.952 125.366 120.262 125.6 120.648C125.834 121.033 125.991 121.473 126.069 121.968C126.147 122.458 126.152 122.963 126.084 123.484L125.983 124.132H120.163C120.121 124.476 120.131 124.812 120.194 125.14C120.261 125.468 120.379 125.762 120.545 126.023C120.712 126.283 120.933 126.494 121.209 126.656C121.485 126.817 121.814 126.903 122.194 126.913C122.683 126.929 123.134 126.833 123.545 126.624C123.962 126.416 124.337 126.14 124.67 125.796L125.483 126.484C125.29 126.754 125.064 126.994 124.803 127.202C124.548 127.406 124.272 127.575 123.975 127.71C123.678 127.846 123.368 127.945 123.045 128.007C122.722 128.075 122.397 128.106 122.069 128.101ZM123.1 120.523C122.735 120.507 122.407 120.57 122.116 120.71C121.824 120.846 121.564 121.028 121.334 121.257C121.11 121.486 120.915 121.749 120.748 122.046C120.582 122.343 120.444 122.642 120.334 122.945L124.741 122.96L124.772 122.82C124.819 122.533 124.816 122.254 124.764 121.984C124.712 121.713 124.613 121.471 124.467 121.257C124.321 121.044 124.134 120.872 123.905 120.741C123.676 120.606 123.407 120.533 123.1 120.523ZM134.514 119.32C134.764 119.325 135.014 119.343 135.264 119.374C135.514 119.4 135.759 119.458 135.998 119.546L135.639 120.952C135.389 120.895 135.139 120.848 134.889 120.812C134.639 120.775 134.386 120.754 134.131 120.749C133.475 120.744 132.913 120.895 132.444 121.202C131.975 121.51 131.584 121.947 131.272 122.515L130.334 127.945H128.92L130.381 119.491H131.725L131.491 120.835C131.689 120.606 131.9 120.398 132.123 120.21C132.347 120.023 132.584 119.864 132.834 119.734C133.084 119.598 133.347 119.497 133.623 119.429C133.905 119.356 134.202 119.32 134.514 119.32ZM142.6 127.945C142.558 127.788 142.538 127.635 142.538 127.484C142.538 127.333 142.545 127.179 142.561 127.023C142.191 127.351 141.788 127.614 141.35 127.812C140.918 128.01 140.449 128.103 139.944 128.093C139.59 128.088 139.254 128.028 138.936 127.913C138.623 127.799 138.35 127.637 138.116 127.429C137.886 127.221 137.707 126.968 137.577 126.671C137.452 126.374 137.4 126.038 137.42 125.663C137.441 125.299 137.514 124.976 137.639 124.695C137.769 124.413 137.936 124.169 138.139 123.96C138.342 123.747 138.577 123.567 138.842 123.421C139.108 123.275 139.389 123.158 139.686 123.07C139.988 122.976 140.298 122.911 140.616 122.874C140.939 122.833 141.256 122.812 141.569 122.812L143.178 122.82L143.28 122.148C143.311 121.882 143.29 121.648 143.217 121.445C143.15 121.241 143.043 121.07 142.897 120.929C142.751 120.788 142.571 120.682 142.358 120.609C142.15 120.536 141.918 120.497 141.663 120.491C141.439 120.486 141.217 120.51 140.998 120.562C140.785 120.614 140.587 120.695 140.405 120.804C140.228 120.913 140.074 121.054 139.944 121.226C139.814 121.392 139.722 121.593 139.67 121.827L138.256 121.835C138.303 121.408 138.441 121.038 138.67 120.726C138.9 120.408 139.181 120.145 139.514 119.937C139.853 119.728 140.222 119.575 140.623 119.476C141.025 119.372 141.418 119.322 141.803 119.327C142.23 119.338 142.629 119.406 142.998 119.531C143.368 119.656 143.683 119.84 143.944 120.085C144.209 120.325 144.41 120.619 144.545 120.968C144.681 121.317 144.725 121.718 144.678 122.171L144.022 126.101C143.975 126.387 143.949 126.674 143.944 126.96C143.944 127.247 143.978 127.531 144.045 127.812L144.03 127.945H142.6ZM140.217 126.851C140.717 126.861 141.183 126.749 141.616 126.515C142.048 126.275 142.41 125.958 142.702 125.562L143.006 123.843L141.795 123.835C141.509 123.835 141.202 123.853 140.873 123.89C140.551 123.926 140.246 124.002 139.959 124.116C139.673 124.231 139.428 124.395 139.225 124.609C139.022 124.822 138.9 125.103 138.858 125.452C138.832 125.676 138.847 125.874 138.905 126.046C138.962 126.218 139.053 126.364 139.178 126.484C139.303 126.598 139.454 126.687 139.631 126.749C139.808 126.812 140.004 126.846 140.217 126.851ZM151.678 117.445L151.319 119.491H154.444L154.248 120.609H151.123L150.358 125.21C150.332 125.439 150.332 125.653 150.358 125.851C150.389 126.049 150.449 126.221 150.538 126.366C150.626 126.512 150.751 126.629 150.913 126.718C151.079 126.807 151.288 126.853 151.538 126.859C151.824 126.869 152.108 126.848 152.389 126.796C152.676 126.744 152.959 126.687 153.241 126.624L153.373 127.663C153.045 127.846 152.681 127.965 152.28 128.023C151.879 128.08 151.493 128.103 151.123 128.093C150.702 128.088 150.345 128.007 150.053 127.851C149.761 127.689 149.527 127.478 149.35 127.218C149.173 126.952 149.051 126.648 148.983 126.304C148.92 125.955 148.907 125.588 148.944 125.202L149.709 120.609H147.553L147.748 119.491H149.897L150.256 117.445H151.678ZM157.6 119.491H161.803L160.553 126.695H163.233L163.006 127.945H156.131L156.358 126.695H159.139L160.17 120.749H157.381L157.6 119.491ZM160.592 117.296C160.597 117.046 160.678 116.84 160.834 116.679C160.991 116.512 161.194 116.424 161.444 116.413C161.569 116.408 161.681 116.426 161.78 116.468C161.884 116.51 161.972 116.567 162.045 116.64C162.123 116.713 162.181 116.801 162.217 116.906C162.259 117.01 162.28 117.124 162.28 117.249C162.28 117.499 162.202 117.702 162.045 117.859C161.889 118.01 161.686 118.09 161.436 118.101C161.191 118.111 160.988 118.044 160.827 117.898C160.67 117.747 160.592 117.546 160.592 117.296ZM165.663 123.695C165.709 123.314 165.79 122.942 165.905 122.577C166.025 122.208 166.176 121.861 166.358 121.538C166.54 121.21 166.754 120.911 166.998 120.64C167.248 120.364 167.525 120.129 167.827 119.937C168.134 119.739 168.467 119.588 168.827 119.484C169.191 119.374 169.582 119.325 169.998 119.335C170.592 119.351 171.097 119.484 171.514 119.734C171.936 119.978 172.275 120.301 172.53 120.702C172.785 121.098 172.959 121.551 173.053 122.062C173.152 122.567 173.173 123.085 173.116 123.616L173.1 123.796C173.027 124.364 172.873 124.911 172.639 125.437C172.41 125.963 172.11 126.426 171.741 126.827C171.371 127.223 170.933 127.538 170.428 127.773C169.928 128.007 169.371 128.116 168.756 128.101C168.168 128.085 167.663 127.958 167.241 127.718C166.824 127.473 166.488 127.153 166.233 126.757C165.978 126.361 165.801 125.913 165.702 125.413C165.603 124.913 165.582 124.398 165.639 123.866L165.663 123.695ZM167.053 123.866C167.027 124.085 167.014 124.312 167.014 124.546C167.019 124.781 167.04 125.01 167.077 125.234C167.118 125.458 167.181 125.671 167.264 125.874C167.347 126.077 167.459 126.257 167.6 126.413C167.741 126.564 167.91 126.687 168.108 126.781C168.311 126.874 168.548 126.926 168.819 126.937C169.251 126.952 169.634 126.866 169.967 126.679C170.301 126.491 170.584 126.247 170.819 125.945C171.058 125.642 171.248 125.304 171.389 124.929C171.53 124.549 171.629 124.171 171.686 123.796L171.702 123.624C171.738 123.296 171.743 122.952 171.717 122.593C171.696 122.234 171.621 121.903 171.491 121.601C171.36 121.294 171.17 121.041 170.92 120.843C170.67 120.64 170.342 120.531 169.936 120.515C169.498 120.499 169.113 120.588 168.78 120.781C168.446 120.968 168.163 121.215 167.928 121.523C167.694 121.83 167.506 122.176 167.366 122.562C167.225 122.942 167.129 123.32 167.077 123.695L167.053 123.866ZM177.42 119.484L177.241 120.741C177.413 120.533 177.6 120.34 177.803 120.163C178.006 119.986 178.222 119.835 178.452 119.71C178.681 119.585 178.923 119.491 179.178 119.429C179.433 119.361 179.702 119.33 179.983 119.335C180.457 119.346 180.855 119.439 181.178 119.616C181.501 119.794 181.756 120.031 181.944 120.327C182.136 120.619 182.264 120.96 182.327 121.351C182.394 121.741 182.405 122.15 182.358 122.577L181.459 127.945H180.045L180.944 122.601C180.975 122.314 180.975 122.049 180.944 121.804C180.918 121.559 180.847 121.346 180.733 121.163C180.623 120.981 180.467 120.838 180.264 120.734C180.061 120.624 179.803 120.567 179.491 120.562C179.246 120.557 179.011 120.588 178.788 120.656C178.569 120.718 178.363 120.809 178.17 120.929C177.978 121.044 177.795 121.184 177.623 121.351C177.457 121.512 177.303 121.687 177.163 121.874L176.108 127.945H174.694L176.163 119.491L177.42 119.484ZM187.077 127.046C187.077 126.885 187.103 126.734 187.155 126.593C187.212 126.447 187.288 126.322 187.381 126.218C187.48 126.114 187.597 126.033 187.733 125.976C187.873 125.913 188.027 125.882 188.194 125.882C188.355 125.877 188.504 125.9 188.639 125.952C188.775 126.004 188.889 126.08 188.983 126.179C189.082 126.278 189.157 126.395 189.209 126.531C189.267 126.661 189.295 126.807 189.295 126.968C189.295 127.135 189.267 127.286 189.209 127.421C189.152 127.557 189.074 127.676 188.975 127.781C188.876 127.879 188.756 127.958 188.616 128.015C188.475 128.072 188.324 128.101 188.163 128.101C188.006 128.101 187.86 128.075 187.725 128.023C187.595 127.976 187.48 127.906 187.381 127.812C187.288 127.718 187.212 127.606 187.155 127.476C187.103 127.346 187.077 127.202 187.077 127.046ZM188.256 120.202C188.256 120.041 188.282 119.89 188.334 119.749C188.392 119.603 188.467 119.478 188.561 119.374C188.66 119.27 188.777 119.189 188.913 119.132C189.053 119.07 189.207 119.038 189.373 119.038C189.535 119.033 189.683 119.057 189.819 119.109C189.954 119.161 190.069 119.236 190.163 119.335C190.261 119.434 190.337 119.551 190.389 119.687C190.446 119.817 190.475 119.963 190.475 120.124C190.475 120.291 190.446 120.442 190.389 120.577C190.332 120.713 190.254 120.833 190.155 120.937C190.056 121.036 189.936 121.114 189.795 121.171C189.655 121.228 189.504 121.257 189.342 121.257C189.186 121.257 189.04 121.234 188.905 121.187C188.775 121.135 188.66 121.062 188.561 120.968C188.467 120.874 188.392 120.762 188.334 120.632C188.282 120.502 188.256 120.359 188.256 120.202ZM211.123 119.468C211.097 119.786 211.025 120.08 210.905 120.351C210.79 120.616 210.639 120.859 210.452 121.077C210.269 121.296 210.058 121.494 209.819 121.671C209.579 121.848 209.324 122.002 209.053 122.132C209.293 122.273 209.504 122.439 209.686 122.632C209.873 122.825 210.025 123.036 210.139 123.265C210.259 123.494 210.342 123.739 210.389 123.999C210.441 124.26 210.457 124.528 210.436 124.804C210.394 125.32 210.259 125.786 210.03 126.202C209.806 126.614 209.517 126.963 209.163 127.249C208.808 127.531 208.402 127.747 207.944 127.898C207.491 128.044 207.014 128.111 206.514 128.101C206.051 128.09 205.621 128.012 205.225 127.866C204.834 127.715 204.498 127.504 204.217 127.234C203.936 126.958 203.722 126.627 203.577 126.241C203.436 125.856 203.386 125.421 203.428 124.937C203.459 124.583 203.538 124.26 203.663 123.968C203.793 123.671 203.962 123.403 204.17 123.163C204.379 122.924 204.618 122.713 204.889 122.531C205.16 122.343 205.452 122.182 205.764 122.046C205.358 121.765 205.056 121.411 204.858 120.984C204.665 120.557 204.587 120.098 204.623 119.609C204.66 119.119 204.777 118.676 204.975 118.281C205.178 117.879 205.441 117.538 205.764 117.257C206.092 116.976 206.467 116.762 206.889 116.616C207.316 116.471 207.772 116.403 208.256 116.413C208.699 116.424 209.103 116.504 209.467 116.656C209.837 116.807 210.15 117.015 210.405 117.281C210.665 117.546 210.858 117.864 210.983 118.234C211.113 118.603 211.16 119.015 211.123 119.468ZM209.038 124.773C209.069 124.491 209.051 124.226 208.983 123.976C208.92 123.721 208.814 123.499 208.663 123.312C208.517 123.124 208.329 122.976 208.1 122.866C207.876 122.752 207.616 122.689 207.319 122.679C206.991 122.674 206.683 122.726 206.397 122.835C206.11 122.945 205.858 123.101 205.639 123.304C205.426 123.507 205.251 123.747 205.116 124.023C204.98 124.299 204.894 124.596 204.858 124.913C204.827 125.205 204.842 125.473 204.905 125.718C204.967 125.963 205.071 126.174 205.217 126.351C205.368 126.528 205.558 126.669 205.788 126.773C206.017 126.872 206.28 126.924 206.577 126.929C206.9 126.939 207.202 126.892 207.483 126.788C207.769 126.684 208.022 126.538 208.241 126.351C208.459 126.158 208.639 125.929 208.78 125.663C208.92 125.392 209.006 125.096 209.038 124.773ZM209.694 119.491C209.72 119.241 209.704 119.004 209.647 118.781C209.595 118.551 209.504 118.351 209.373 118.179C209.243 118.002 209.077 117.861 208.873 117.757C208.676 117.653 208.444 117.598 208.178 117.593C207.881 117.588 207.608 117.637 207.358 117.741C207.108 117.846 206.889 117.991 206.702 118.179C206.514 118.361 206.363 118.58 206.248 118.835C206.134 119.085 206.061 119.351 206.03 119.632C206.004 119.882 206.017 120.122 206.069 120.351C206.121 120.575 206.209 120.773 206.334 120.945C206.465 121.111 206.629 121.247 206.827 121.351C207.03 121.45 207.264 121.502 207.53 121.507C207.821 121.512 208.092 121.465 208.342 121.366C208.597 121.262 208.819 121.119 209.006 120.937C209.199 120.749 209.353 120.533 209.467 120.288C209.587 120.038 209.663 119.773 209.694 119.491ZM219.967 123.577C219.879 124.161 219.73 124.728 219.522 125.281C219.319 125.827 219.045 126.314 218.702 126.741C218.363 127.163 217.946 127.499 217.452 127.749C216.962 127.999 216.386 128.116 215.725 128.101C215.308 128.09 214.939 128.023 214.616 127.898C214.298 127.767 214.022 127.596 213.788 127.382C213.558 127.169 213.371 126.919 213.225 126.632C213.079 126.346 212.967 126.038 212.889 125.71C212.816 125.377 212.775 125.031 212.764 124.671C212.754 124.312 212.772 123.952 212.819 123.593L213.241 120.929C213.298 120.544 213.381 120.163 213.491 119.788C213.6 119.408 213.738 119.049 213.905 118.71C214.077 118.372 214.277 118.059 214.506 117.773C214.735 117.486 214.996 117.241 215.288 117.038C215.584 116.83 215.915 116.671 216.28 116.562C216.644 116.447 217.048 116.395 217.491 116.406C217.913 116.416 218.282 116.486 218.6 116.616C218.918 116.741 219.191 116.913 219.42 117.132C219.655 117.346 219.845 117.596 219.991 117.882C220.136 118.169 220.246 118.478 220.319 118.812C220.392 119.145 220.433 119.491 220.444 119.851C220.454 120.21 220.436 120.57 220.389 120.929L219.967 123.577ZM214.272 123.241L219.131 119.866C219.136 119.57 219.113 119.286 219.061 119.015C219.009 118.744 218.915 118.504 218.78 118.296C218.65 118.088 218.472 117.921 218.248 117.796C218.03 117.671 217.754 117.603 217.42 117.593C216.978 117.577 216.597 117.656 216.28 117.827C215.967 117.994 215.702 118.221 215.483 118.507C215.269 118.794 215.1 119.122 214.975 119.491C214.855 119.856 214.767 120.228 214.709 120.609L214.272 123.241ZM218.92 121.351L214.084 124.695C214.079 124.986 214.103 125.265 214.155 125.531C214.212 125.796 214.306 126.031 214.436 126.234C214.571 126.437 214.748 126.601 214.967 126.726C215.191 126.851 215.467 126.919 215.795 126.929C216.238 126.945 216.616 126.866 216.928 126.695C217.246 126.523 217.511 126.294 217.725 126.007C217.939 125.715 218.105 125.387 218.225 125.023C218.35 124.653 218.441 124.278 218.498 123.898L218.92 121.351ZM222.248 118.624C222.285 118.317 222.363 118.028 222.483 117.757C222.608 117.481 222.769 117.241 222.967 117.038C223.165 116.835 223.397 116.676 223.663 116.562C223.928 116.447 224.225 116.392 224.553 116.398C224.866 116.408 225.136 116.473 225.366 116.593C225.6 116.713 225.793 116.874 225.944 117.077C226.095 117.281 226.202 117.515 226.264 117.781C226.332 118.046 226.355 118.325 226.334 118.616L226.28 119.218C226.243 119.525 226.163 119.814 226.038 120.085C225.918 120.351 225.759 120.585 225.561 120.788C225.368 120.991 225.136 121.15 224.866 121.265C224.6 121.379 224.306 121.432 223.983 121.421C223.67 121.416 223.397 121.353 223.163 121.234C222.933 121.109 222.743 120.945 222.592 120.741C222.441 120.538 222.332 120.307 222.264 120.046C222.196 119.786 222.173 119.51 222.194 119.218L222.248 118.624ZM223.272 119.234C223.261 119.379 223.264 119.525 223.28 119.671C223.301 119.817 223.342 119.95 223.405 120.07C223.467 120.189 223.553 120.288 223.663 120.366C223.772 120.445 223.915 120.484 224.092 120.484C224.269 120.484 224.423 120.447 224.553 120.374C224.689 120.301 224.801 120.208 224.889 120.093C224.978 119.973 225.048 119.838 225.1 119.687C225.152 119.536 225.189 119.382 225.209 119.226L225.264 118.609C225.275 118.463 225.269 118.317 225.248 118.171C225.233 118.02 225.194 117.885 225.131 117.765C225.069 117.64 224.983 117.538 224.873 117.46C224.764 117.382 224.621 117.34 224.444 117.335C224.261 117.335 224.105 117.372 223.975 117.445C223.845 117.517 223.733 117.616 223.639 117.741C223.551 117.861 223.48 117.997 223.428 118.148C223.376 118.299 223.342 118.452 223.327 118.609L223.272 119.234ZM225.639 125.312C225.676 125.004 225.754 124.715 225.873 124.445C225.998 124.169 226.16 123.929 226.358 123.726C226.556 123.523 226.788 123.366 227.053 123.257C227.324 123.142 227.623 123.088 227.952 123.093C228.264 123.103 228.535 123.169 228.764 123.288C228.998 123.408 229.191 123.57 229.342 123.773C229.493 123.976 229.603 124.21 229.67 124.476C229.738 124.736 229.761 125.012 229.741 125.304L229.678 125.913C229.642 126.221 229.561 126.51 229.436 126.781C229.316 127.051 229.157 127.286 228.959 127.484C228.767 127.682 228.535 127.838 228.264 127.952C227.998 128.067 227.704 128.122 227.381 128.116C227.069 128.111 226.795 128.049 226.561 127.929C226.327 127.804 226.134 127.642 225.983 127.445C225.832 127.241 225.722 127.01 225.655 126.749C225.587 126.484 225.564 126.205 225.584 125.913L225.639 125.312ZM226.663 125.929C226.652 126.075 226.657 126.221 226.678 126.366C226.699 126.512 226.741 126.648 226.803 126.773C226.866 126.892 226.952 126.991 227.061 127.07C227.17 127.142 227.314 127.182 227.491 127.187C227.668 127.187 227.821 127.15 227.952 127.077C228.087 127.004 228.199 126.908 228.288 126.788C228.376 126.669 228.446 126.533 228.498 126.382C228.551 126.231 228.587 126.077 228.608 125.921L228.663 125.296C228.673 125.15 228.668 125.004 228.647 124.859C228.631 124.708 228.592 124.572 228.53 124.452C228.472 124.333 228.389 124.234 228.28 124.156C228.17 124.077 228.027 124.036 227.85 124.031C227.668 124.031 227.509 124.067 227.373 124.14C227.243 124.213 227.131 124.309 227.038 124.429C226.949 124.549 226.879 124.684 226.827 124.835C226.775 124.986 226.738 125.14 226.717 125.296L226.663 125.929ZM223.639 126.468L222.834 125.96L228.514 117.898L229.327 118.406L223.639 126.468Z" fill="white"/>
<path d="M365.325 264.902L366.022 264.914C366.26 264.914 366.489 264.88 366.707 264.814C366.93 264.748 367.129 264.652 367.305 264.527C367.481 264.398 367.625 264.24 367.739 264.052C367.856 263.861 367.93 263.638 367.961 263.384C367.985 263.173 367.979 262.98 367.944 262.804C367.909 262.625 367.84 262.47 367.739 262.341C367.641 262.212 367.512 262.113 367.352 262.042C367.196 261.968 367.006 261.927 366.784 261.919C366.553 261.916 366.34 261.949 366.145 262.019C365.95 262.089 365.776 262.189 365.623 262.318C365.475 262.447 365.352 262.603 365.254 262.787C365.157 262.966 365.088 263.167 365.049 263.39L364 263.396C364.039 263.033 364.141 262.705 364.305 262.412C364.473 262.119 364.684 261.871 364.938 261.667C365.196 261.46 365.487 261.302 365.811 261.193C366.139 261.083 366.481 261.031 366.836 261.035C367.188 261.042 367.504 261.105 367.785 261.222C368.071 261.335 368.309 261.496 368.5 261.703C368.696 261.906 368.838 262.152 368.928 262.441C369.022 262.73 369.053 263.052 369.022 263.408C369.002 263.642 368.946 263.859 368.852 264.058C368.758 264.253 368.637 264.431 368.489 264.591C368.344 264.751 368.18 264.894 367.996 265.019C367.813 265.144 367.619 265.251 367.416 265.341C367.616 265.427 367.785 265.537 367.926 265.669C368.071 265.798 368.184 265.947 368.266 266.115C368.352 266.283 368.41 266.464 368.442 266.66C368.473 266.851 368.481 267.052 368.465 267.263C368.43 267.658 368.328 268.013 368.16 268.33C367.996 268.646 367.782 268.916 367.516 269.138C367.254 269.361 366.951 269.531 366.608 269.648C366.264 269.761 365.899 269.814 365.512 269.806C365.16 269.798 364.838 269.738 364.545 269.625C364.252 269.511 364.002 269.353 363.795 269.15C363.592 268.943 363.436 268.695 363.326 268.406C363.217 268.117 363.172 267.792 363.192 267.433L364.246 267.439C364.231 267.658 364.248 267.857 364.299 268.037C364.354 268.216 364.436 268.371 364.545 268.5C364.659 268.628 364.801 268.73 364.973 268.804C365.145 268.878 365.342 268.917 365.565 268.921C365.819 268.929 366.051 268.896 366.262 268.822C366.477 268.744 366.664 268.634 366.825 268.494C366.985 268.349 367.116 268.175 367.217 267.972C367.319 267.765 367.383 267.537 367.41 267.287C367.438 267.044 367.422 266.832 367.364 266.648C367.305 266.464 367.213 266.31 367.088 266.185C366.963 266.06 366.807 265.964 366.619 265.898C366.432 265.832 366.221 265.794 365.987 265.787L365.166 265.781L365.325 264.902ZM375.385 263.22C375.573 263.224 375.76 263.238 375.948 263.261C376.135 263.281 376.319 263.324 376.498 263.39L376.229 264.445C376.041 264.402 375.854 264.367 375.666 264.339C375.479 264.312 375.289 264.296 375.098 264.292C374.606 264.289 374.184 264.402 373.832 264.632C373.481 264.863 373.188 265.191 372.953 265.617L372.25 269.689H371.19L372.285 263.349H373.293L373.117 264.357C373.266 264.185 373.424 264.029 373.592 263.888C373.76 263.748 373.938 263.628 374.125 263.531C374.313 263.429 374.51 263.353 374.717 263.302C374.928 263.248 375.151 263.22 375.385 263.22ZM377.711 266.507C377.742 266.246 377.795 265.982 377.869 265.716C377.944 265.451 378.039 265.195 378.157 264.949C378.274 264.703 378.412 264.474 378.573 264.263C378.737 264.052 378.92 263.869 379.123 263.712C379.33 263.556 379.561 263.435 379.815 263.349C380.069 263.263 380.346 263.224 380.647 263.232C380.963 263.24 381.258 263.302 381.532 263.419C381.805 263.537 382.041 263.724 382.241 263.982L382.85 260.689H383.91L382.346 269.689H381.385L381.496 269.021C381.25 269.283 380.975 269.482 380.67 269.619C380.369 269.751 380.037 269.814 379.674 269.806C379.401 269.798 379.157 269.748 378.942 269.654C378.731 269.556 378.547 269.427 378.391 269.267C378.239 269.107 378.112 268.923 378.01 268.716C377.912 268.505 377.836 268.285 377.782 268.054C377.727 267.82 377.694 267.582 377.682 267.339C377.67 267.097 377.676 266.861 377.7 266.63L377.711 266.507ZM378.754 266.63C378.735 266.787 378.725 266.951 378.725 267.123C378.725 267.294 378.737 267.464 378.76 267.632C378.787 267.796 378.828 267.953 378.883 268.101C378.938 268.25 379.014 268.382 379.112 268.5C379.209 268.613 379.33 268.705 379.475 268.775C379.619 268.845 379.791 268.882 379.991 268.886C380.338 268.898 380.641 268.818 380.899 268.646C381.16 268.474 381.389 268.253 381.584 267.984L382.094 265.025C381.981 264.755 381.819 264.544 381.608 264.392C381.401 264.236 381.147 264.154 380.846 264.146C380.518 264.134 380.233 264.199 379.991 264.339C379.748 264.48 379.543 264.666 379.375 264.896C379.207 265.123 379.073 265.378 378.971 265.664C378.873 265.945 378.807 266.226 378.772 266.507L378.754 266.63ZM392.735 268.734C393.215 268.738 393.637 268.677 394 268.552C394.367 268.427 394.688 268.248 394.961 268.013C395.235 267.775 395.465 267.486 395.653 267.146C395.844 266.802 396.002 266.414 396.127 265.98C395.881 266.253 395.6 266.466 395.284 266.619C394.971 266.771 394.627 266.843 394.252 266.835C393.869 266.828 393.543 266.742 393.274 266.578C393.008 266.41 392.793 266.193 392.629 265.927C392.465 265.662 392.352 265.365 392.289 265.037C392.231 264.705 392.217 264.371 392.248 264.035C392.287 263.636 392.381 263.255 392.53 262.892C392.678 262.525 392.877 262.203 393.127 261.925C393.377 261.648 393.674 261.429 394.018 261.269C394.366 261.109 394.754 261.033 395.184 261.041C395.496 261.044 395.77 261.097 396.004 261.199C396.242 261.3 396.448 261.435 396.619 261.603C396.795 261.771 396.938 261.968 397.047 262.195C397.16 262.417 397.246 262.656 397.305 262.91C397.364 263.16 397.397 263.421 397.405 263.695C397.412 263.964 397.401 264.23 397.369 264.492L397.317 264.884C397.254 265.33 397.164 265.759 397.047 266.173C396.934 266.583 396.787 266.968 396.608 267.328C396.432 267.683 396.221 268.007 395.975 268.3C395.729 268.589 395.444 268.837 395.119 269.044C394.795 269.251 394.43 269.414 394.024 269.531C393.621 269.644 393.174 269.701 392.682 269.701H392.547L392.641 268.734H392.735ZM394.469 265.939C394.672 265.947 394.866 265.917 395.049 265.851C395.237 265.785 395.409 265.693 395.565 265.576C395.721 265.458 395.862 265.324 395.987 265.171C396.116 265.015 396.225 264.851 396.315 264.679L396.356 264.333C396.367 264.189 396.373 264.031 396.373 263.859C396.373 263.687 396.36 263.513 396.332 263.337C396.309 263.162 396.268 262.992 396.209 262.828C396.155 262.66 396.08 262.511 395.987 262.382C395.893 262.253 395.776 262.15 395.635 262.072C395.498 261.99 395.332 261.945 395.137 261.937C394.856 261.929 394.606 261.986 394.387 262.107C394.172 262.224 393.989 262.38 393.836 262.576C393.684 262.771 393.563 262.992 393.473 263.238C393.383 263.484 393.325 263.73 393.297 263.976C393.274 264.183 393.274 264.402 393.297 264.632C393.325 264.859 393.381 265.068 393.467 265.259C393.557 265.451 393.682 265.611 393.842 265.74C394.006 265.865 394.215 265.931 394.469 265.939ZM399.778 268.734C400.258 268.738 400.68 268.677 401.043 268.552C401.41 268.427 401.731 268.248 402.004 268.013C402.278 267.775 402.508 267.486 402.696 267.146C402.887 266.802 403.045 266.414 403.17 265.98C402.924 266.253 402.643 266.466 402.326 266.619C402.014 266.771 401.67 266.843 401.295 266.835C400.912 266.828 400.586 266.742 400.317 266.578C400.051 266.41 399.836 266.193 399.672 265.927C399.508 265.662 399.395 265.365 399.332 265.037C399.274 264.705 399.26 264.371 399.291 264.035C399.33 263.636 399.424 263.255 399.573 262.892C399.721 262.525 399.92 262.203 400.17 261.925C400.42 261.648 400.717 261.429 401.061 261.269C401.409 261.109 401.797 261.033 402.227 261.041C402.539 261.044 402.813 261.097 403.047 261.199C403.285 261.3 403.491 261.435 403.662 261.603C403.838 261.771 403.981 261.968 404.09 262.195C404.203 262.417 404.289 262.656 404.348 262.91C404.407 263.16 404.44 263.421 404.448 263.695C404.455 263.964 404.444 264.23 404.412 264.492L404.36 264.884C404.297 265.33 404.207 265.759 404.09 266.173C403.977 266.583 403.83 266.968 403.651 267.328C403.475 267.683 403.264 268.007 403.018 268.3C402.772 268.589 402.487 268.837 402.162 269.044C401.838 269.251 401.473 269.414 401.067 269.531C400.664 269.644 400.217 269.701 399.725 269.701H399.59L399.684 268.734H399.778ZM401.512 265.939C401.715 265.947 401.909 265.917 402.092 265.851C402.28 265.785 402.451 265.693 402.608 265.576C402.764 265.458 402.905 265.324 403.03 265.171C403.159 265.015 403.268 264.851 403.358 264.679L403.399 264.333C403.41 264.189 403.416 264.031 403.416 263.859C403.416 263.687 403.403 263.513 403.375 263.337C403.352 263.162 403.311 262.992 403.252 262.828C403.198 262.66 403.123 262.511 403.03 262.382C402.936 262.253 402.819 262.15 402.678 262.072C402.541 261.99 402.375 261.945 402.18 261.937C401.899 261.929 401.649 261.986 401.43 262.107C401.215 262.224 401.032 262.38 400.879 262.576C400.727 262.771 400.606 262.992 400.516 263.238C400.426 263.484 400.367 263.73 400.34 263.976C400.317 264.183 400.317 264.402 400.34 264.632C400.367 264.859 400.424 265.068 400.51 265.259C400.6 265.451 400.725 265.611 400.885 265.74C401.049 265.865 401.258 265.931 401.512 265.939ZM405.971 262.699C405.998 262.468 406.057 262.251 406.147 262.048C406.241 261.841 406.362 261.662 406.51 261.509C406.659 261.357 406.832 261.238 407.032 261.152C407.231 261.066 407.453 261.025 407.7 261.029C407.934 261.037 408.137 261.085 408.309 261.175C408.485 261.265 408.629 261.386 408.742 261.539C408.856 261.691 408.936 261.867 408.983 262.066C409.034 262.265 409.051 262.474 409.035 262.693L408.994 263.144C408.967 263.375 408.907 263.591 408.813 263.794C408.723 263.994 408.604 264.169 408.455 264.322C408.311 264.474 408.137 264.593 407.934 264.679C407.735 264.765 407.514 264.804 407.272 264.796C407.037 264.792 406.832 264.746 406.657 264.656C406.485 264.562 406.342 264.439 406.229 264.287C406.116 264.134 406.034 263.96 405.983 263.765C405.932 263.57 405.914 263.363 405.93 263.144L405.971 262.699ZM406.739 263.156C406.731 263.265 406.733 263.375 406.744 263.484C406.76 263.593 406.791 263.693 406.838 263.783C406.885 263.873 406.95 263.947 407.032 264.005C407.114 264.064 407.221 264.093 407.354 264.093C407.487 264.093 407.602 264.066 407.7 264.011C407.801 263.957 407.885 263.886 407.951 263.8C408.018 263.71 408.071 263.609 408.11 263.496C408.149 263.382 408.176 263.267 408.192 263.15L408.233 262.687C408.241 262.578 408.237 262.468 408.221 262.359C408.209 262.246 408.18 262.144 408.133 262.054C408.086 261.96 408.022 261.884 407.94 261.826C407.858 261.767 407.75 261.736 407.617 261.732C407.481 261.732 407.364 261.759 407.266 261.814C407.168 261.869 407.084 261.943 407.014 262.037C406.948 262.126 406.895 262.228 406.856 262.341C406.817 262.455 406.791 262.57 406.78 262.687L406.739 263.156ZM408.514 267.714C408.541 267.484 408.6 267.267 408.69 267.064C408.784 266.857 408.905 266.677 409.053 266.525C409.201 266.373 409.375 266.255 409.575 266.173C409.778 266.087 410.002 266.046 410.248 266.05C410.483 266.058 410.686 266.107 410.858 266.197C411.034 266.287 411.178 266.408 411.291 266.56C411.405 266.712 411.487 266.888 411.537 267.087C411.588 267.283 411.606 267.49 411.59 267.708L411.543 268.166C411.516 268.396 411.455 268.613 411.362 268.816C411.272 269.019 411.153 269.195 411.004 269.343C410.86 269.492 410.686 269.609 410.483 269.695C410.284 269.781 410.063 269.822 409.821 269.818C409.586 269.814 409.381 269.767 409.205 269.677C409.03 269.583 408.885 269.462 408.772 269.314C408.659 269.162 408.576 268.988 408.526 268.792C408.475 268.593 408.457 268.384 408.473 268.166L408.514 267.714ZM409.282 268.177C409.274 268.287 409.278 268.396 409.293 268.505C409.309 268.615 409.34 268.716 409.387 268.81C409.434 268.9 409.498 268.974 409.58 269.033C409.662 269.087 409.77 269.117 409.903 269.121C410.035 269.121 410.151 269.093 410.248 269.039C410.35 268.984 410.434 268.912 410.5 268.822C410.567 268.732 410.619 268.63 410.659 268.517C410.698 268.404 410.725 268.289 410.741 268.171L410.782 267.703C410.789 267.593 410.785 267.484 410.77 267.375C410.758 267.261 410.729 267.16 410.682 267.07C410.639 266.98 410.576 266.906 410.494 266.847C410.412 266.789 410.305 266.757 410.172 266.753C410.035 266.753 409.916 266.781 409.815 266.835C409.717 266.89 409.633 266.962 409.563 267.052C409.496 267.142 409.444 267.244 409.405 267.357C409.366 267.47 409.338 267.585 409.323 267.703L409.282 268.177ZM407.014 268.582L406.41 268.201L410.67 262.154L411.28 262.535L407.014 268.582Z" fill="white"/>
<path d="M388.822 82.709V76.3721L389.786 76.5225L393.361 80.2002C393.548 80.387 393.744 80.5876 393.949 80.8018C394.159 81.016 394.38 81.2165 394.612 81.4033C394.845 81.5902 395.088 81.7497 395.344 81.8818C395.599 82.0186 395.868 82.1051 396.15 82.1416C396.383 82.1689 396.601 82.1576 396.807 82.1074C397.016 82.0573 397.198 81.9707 397.353 81.8477C397.508 81.7246 397.631 81.5697 397.723 81.3828C397.818 81.196 397.871 80.9818 397.88 80.7402C397.889 80.4167 397.843 80.1296 397.743 79.8789C397.647 79.6283 397.508 79.4095 397.326 79.2227C397.148 79.0404 396.932 78.8923 396.677 78.7783C396.426 78.6644 396.15 78.5869 395.85 78.5459L395.843 77.3154C396.298 77.361 396.715 77.4818 397.094 77.6777C397.476 77.8737 397.802 78.1266 398.071 78.4365C398.345 78.7464 398.554 79.1019 398.7 79.5029C398.85 79.9085 398.921 80.3415 398.912 80.8018C398.903 81.1937 398.832 81.556 398.7 81.8887C398.572 82.2214 398.39 82.5039 398.153 82.7363C397.916 82.9733 397.631 83.151 397.299 83.2695C396.971 83.388 396.606 83.4313 396.205 83.3994C395.854 83.3721 395.519 83.2809 395.2 83.126C394.881 82.9756 394.578 82.791 394.291 82.5723C394.004 82.3581 393.733 82.1211 393.477 81.8613C393.222 81.6061 392.981 81.3577 392.753 81.1162L389.854 78.0674V82.873L388.822 82.709ZM396.225 87.3096L395.125 87.1523C395.307 87.3027 395.476 87.4668 395.631 87.6445C395.786 87.8223 395.918 88.0114 396.027 88.2119C396.137 88.4124 396.219 88.6243 396.273 88.8477C396.333 89.071 396.36 89.3057 396.355 89.5518C396.346 89.9665 396.264 90.3151 396.109 90.5977C395.954 90.8802 395.747 91.1035 395.487 91.2676C395.232 91.4362 394.934 91.5479 394.592 91.6025C394.25 91.6618 393.892 91.6709 393.518 91.6299L388.822 90.8438V89.6064L393.498 90.3926C393.749 90.4199 393.981 90.4199 394.195 90.3926C394.409 90.3698 394.596 90.3083 394.756 90.208C394.915 90.1123 395.041 89.9756 395.132 89.7979C395.227 89.6201 395.278 89.3945 395.282 89.1211C395.287 88.9069 395.259 88.7018 395.2 88.5059C395.145 88.3145 395.066 88.1344 394.961 87.9658C394.861 87.7972 394.738 87.6377 394.592 87.4873C394.45 87.3415 394.298 87.207 394.134 87.084L388.822 86.1611V84.9238L396.219 86.209L396.225 87.3096ZM392.534 93.5645C392.839 93.6009 393.147 93.6624 393.457 93.749C393.767 93.8356 394.065 93.9473 394.352 94.084C394.64 94.2207 394.906 94.3825 395.152 94.5693C395.398 94.7607 395.613 94.9749 395.795 95.2119C395.977 95.4535 396.118 95.7223 396.219 96.0186C396.319 96.3148 396.364 96.6383 396.355 96.9893C396.346 97.3584 396.273 97.7025 396.137 98.0215C396 98.3405 395.781 98.6162 395.48 98.8486L399.322 99.5596V100.797L388.822 98.9717V97.8506L389.601 97.9805C389.296 97.6934 389.064 97.3721 388.904 97.0166C388.749 96.6657 388.676 96.2783 388.685 95.8545C388.695 95.5355 388.754 95.2507 388.863 95C388.977 94.7539 389.128 94.5397 389.314 94.3574C389.501 94.1797 389.715 94.0316 389.957 93.9131C390.203 93.7992 390.461 93.7103 390.729 93.6465C391.003 93.5827 391.281 93.5439 391.563 93.5303C391.846 93.5166 392.122 93.5234 392.391 93.5508L392.534 93.5645ZM392.391 94.7812C392.208 94.7585 392.017 94.7471 391.816 94.7471C391.616 94.7471 391.418 94.7607 391.222 94.7881C391.03 94.82 390.848 94.8678 390.675 94.9316C390.502 94.9954 390.347 95.0843 390.21 95.1982C390.078 95.3122 389.971 95.4535 389.889 95.6221C389.807 95.7907 389.763 95.9912 389.759 96.2236C389.745 96.6292 389.838 96.9824 390.039 97.2832C390.239 97.5885 390.497 97.8551 390.811 98.083L394.264 98.6777C394.578 98.5456 394.824 98.3564 395.002 98.1104C395.184 97.8688 395.28 97.5726 395.289 97.2217C395.303 96.8389 395.227 96.5062 395.063 96.2236C394.899 95.9411 394.683 95.7018 394.414 95.5059C394.15 95.3099 393.851 95.1527 393.518 95.0342C393.19 94.9202 392.862 94.8428 392.534 94.8018L392.391 94.7812ZM389.608 103.976C389.75 103.976 389.882 103.998 390.005 104.044C390.132 104.094 390.242 104.16 390.333 104.242C390.424 104.329 390.495 104.431 390.545 104.55C390.6 104.673 390.627 104.807 390.627 104.953C390.631 105.094 390.611 105.224 390.565 105.343C390.52 105.461 390.454 105.562 390.367 105.644C390.281 105.73 390.178 105.796 390.059 105.842C389.946 105.892 389.818 105.917 389.677 105.917C389.531 105.917 389.399 105.892 389.28 105.842C389.162 105.792 389.057 105.723 388.966 105.637C388.879 105.55 388.811 105.445 388.761 105.322C388.711 105.199 388.685 105.067 388.685 104.926C388.685 104.789 388.708 104.661 388.754 104.543C388.795 104.429 388.856 104.329 388.938 104.242C389.02 104.16 389.118 104.094 389.232 104.044C389.346 103.998 389.472 103.976 389.608 103.976ZM395.597 105.008C395.738 105.008 395.87 105.031 395.993 105.076C396.121 105.126 396.23 105.192 396.321 105.274C396.412 105.361 396.483 105.464 396.533 105.582C396.588 105.705 396.615 105.84 396.615 105.985C396.62 106.127 396.599 106.257 396.554 106.375C396.508 106.493 396.442 106.594 396.355 106.676C396.269 106.762 396.166 106.828 396.048 106.874C395.934 106.924 395.806 106.949 395.665 106.949C395.519 106.949 395.387 106.924 395.268 106.874C395.15 106.824 395.045 106.756 394.954 106.669C394.867 106.582 394.799 106.478 394.749 106.354C394.699 106.231 394.674 106.099 394.674 105.958C394.674 105.821 394.694 105.694 394.735 105.575C394.781 105.461 394.845 105.361 394.927 105.274C395.009 105.192 395.107 105.126 395.221 105.076C395.335 105.031 395.46 105.008 395.597 105.008ZM389.936 119.309C389.932 119.869 390.003 120.361 390.148 120.785C390.294 121.214 390.504 121.587 390.777 121.906C391.055 122.225 391.392 122.494 391.789 122.713C392.19 122.936 392.643 123.121 393.149 123.267C392.83 122.979 392.582 122.651 392.404 122.282C392.226 121.918 392.142 121.517 392.151 121.079C392.16 120.632 392.261 120.252 392.452 119.938C392.648 119.628 392.901 119.377 393.211 119.186C393.521 118.994 393.867 118.862 394.25 118.789C394.637 118.721 395.027 118.705 395.419 118.741C395.884 118.787 396.328 118.896 396.752 119.069C397.18 119.243 397.556 119.475 397.88 119.767C398.203 120.058 398.459 120.405 398.645 120.806C398.832 121.211 398.921 121.665 398.912 122.166C398.907 122.531 398.846 122.85 398.727 123.123C398.609 123.401 398.452 123.64 398.256 123.841C398.06 124.046 397.83 124.212 397.565 124.34C397.306 124.472 397.028 124.572 396.731 124.641C396.44 124.709 396.134 124.748 395.815 124.757C395.501 124.766 395.191 124.752 394.886 124.716L394.428 124.654C393.908 124.581 393.407 124.477 392.924 124.34C392.445 124.208 391.996 124.037 391.577 123.827C391.162 123.622 390.784 123.376 390.442 123.089C390.105 122.802 389.816 122.469 389.574 122.091C389.333 121.713 389.143 121.286 389.007 120.812C388.875 120.343 388.809 119.821 388.809 119.247V119.09L389.936 119.199V119.309ZM393.197 121.332C393.188 121.569 393.222 121.795 393.3 122.009C393.377 122.228 393.484 122.428 393.621 122.61C393.758 122.793 393.915 122.957 394.093 123.103C394.275 123.253 394.466 123.381 394.667 123.485L395.07 123.533C395.239 123.547 395.423 123.554 395.624 123.554C395.824 123.554 396.027 123.538 396.232 123.506C396.437 123.479 396.636 123.431 396.827 123.362C397.023 123.299 397.196 123.212 397.347 123.103C397.497 122.993 397.618 122.856 397.709 122.692C397.805 122.533 397.857 122.339 397.866 122.111C397.875 121.783 397.809 121.492 397.668 121.236C397.531 120.986 397.349 120.771 397.121 120.594C396.893 120.416 396.636 120.275 396.349 120.17C396.061 120.065 395.774 119.997 395.487 119.965C395.246 119.938 394.99 119.938 394.722 119.965C394.457 119.997 394.213 120.063 393.99 120.163C393.767 120.268 393.58 120.414 393.43 120.601C393.284 120.792 393.206 121.036 393.197 121.332ZM398.789 132.133L397.654 132.017V131.935C397.659 131.388 397.579 130.9 397.415 130.472C397.255 130.043 397.03 129.667 396.738 129.344C396.447 129.02 396.098 128.742 395.692 128.51C395.287 128.282 394.84 128.09 394.352 127.936C394.653 128.227 394.895 128.555 395.077 128.92C395.264 129.289 395.355 129.688 395.35 130.116C395.341 130.563 395.241 130.943 395.05 131.258C394.863 131.572 394.617 131.825 394.311 132.017C394.011 132.208 393.669 132.34 393.286 132.413C392.903 132.486 392.514 132.504 392.117 132.468C391.652 132.427 391.21 132.317 390.791 132.14C390.372 131.966 390.003 131.734 389.684 131.442C389.369 131.151 389.121 130.804 388.938 130.403C388.756 130.002 388.672 129.553 388.685 129.057C388.699 128.551 388.822 128.12 389.055 127.765C389.287 127.414 389.586 127.131 389.95 126.917C390.315 126.703 390.72 126.557 391.167 126.479C391.614 126.407 392.058 126.395 392.5 126.445L393.095 126.527C393.61 126.6 394.109 126.707 394.592 126.849C395.075 126.99 395.526 127.168 395.945 127.382C396.369 127.596 396.754 127.849 397.1 128.141C397.447 128.437 397.745 128.774 397.996 129.152C398.247 129.535 398.44 129.961 398.577 130.431C398.718 130.905 398.789 131.426 398.789 131.996V132.133ZM394.298 129.87C394.307 129.638 394.275 129.414 394.202 129.2C394.129 128.991 394.029 128.795 393.901 128.612C393.774 128.435 393.623 128.273 393.45 128.127C393.277 127.981 393.092 127.856 392.896 127.751L392.459 127.696C392.29 127.678 392.106 127.669 391.905 127.669C391.705 127.669 391.504 127.685 391.304 127.717C391.108 127.749 390.916 127.797 390.729 127.86C390.543 127.929 390.376 128.018 390.23 128.127C390.085 128.236 389.966 128.373 389.875 128.537C389.784 128.701 389.734 128.895 389.725 129.118C389.715 129.442 389.777 129.729 389.909 129.979C390.041 130.23 390.219 130.444 390.442 130.622C390.666 130.8 390.919 130.941 391.201 131.046C391.484 131.151 391.768 131.219 392.056 131.251C392.302 131.278 392.555 131.276 392.814 131.244C393.079 131.217 393.318 131.148 393.532 131.039C393.751 130.934 393.931 130.786 394.072 130.595C394.213 130.408 394.289 130.166 394.298 129.87ZM396.977 134.751C397.246 134.783 397.499 134.851 397.736 134.956C397.978 135.065 398.187 135.207 398.365 135.38C398.543 135.553 398.682 135.756 398.782 135.988C398.882 136.221 398.93 136.48 398.926 136.768C398.917 137.041 398.86 137.278 398.755 137.479C398.65 137.684 398.509 137.852 398.331 137.984C398.153 138.117 397.948 138.21 397.716 138.265C397.483 138.324 397.239 138.344 396.984 138.326L396.458 138.278C396.189 138.246 395.936 138.176 395.699 138.066C395.467 137.962 395.262 137.823 395.084 137.649C394.906 137.481 394.767 137.278 394.667 137.041C394.567 136.809 394.521 136.551 394.53 136.269C394.535 135.995 394.589 135.756 394.694 135.551C394.804 135.35 394.947 135.184 395.125 135.052C395.303 134.92 395.505 134.824 395.733 134.765C395.961 134.705 396.203 134.685 396.458 134.703L396.977 134.751ZM396.444 135.646C396.317 135.637 396.189 135.64 396.061 135.653C395.934 135.672 395.818 135.708 395.713 135.763C395.608 135.817 395.521 135.893 395.453 135.988C395.385 136.084 395.35 136.209 395.35 136.364C395.35 136.519 395.382 136.654 395.446 136.768C395.51 136.886 395.592 136.984 395.692 137.062C395.797 137.139 395.916 137.201 396.048 137.246C396.18 137.292 396.314 137.324 396.451 137.342L396.991 137.39C397.119 137.399 397.246 137.394 397.374 137.376C397.506 137.362 397.625 137.328 397.729 137.273C397.839 137.219 397.928 137.144 397.996 137.048C398.064 136.952 398.101 136.827 398.105 136.672C398.105 136.512 398.073 136.376 398.01 136.262C397.946 136.148 397.859 136.05 397.75 135.968C397.645 135.89 397.527 135.829 397.394 135.783C397.262 135.738 397.128 135.708 396.991 135.694L396.444 135.646ZM391.126 137.718C391.395 137.75 391.648 137.818 391.885 137.923C392.126 138.032 392.336 138.174 392.514 138.347C392.691 138.52 392.828 138.723 392.924 138.955C393.024 139.192 393.072 139.454 393.067 139.741C393.058 140.015 393.001 140.252 392.896 140.452C392.792 140.657 392.65 140.826 392.473 140.958C392.295 141.09 392.09 141.186 391.857 141.245C391.629 141.304 391.388 141.325 391.133 141.307L390.6 141.252C390.331 141.22 390.078 141.149 389.841 141.04C389.604 140.935 389.399 140.796 389.225 140.623C389.052 140.454 388.916 140.252 388.815 140.015C388.715 139.782 388.667 139.525 388.672 139.242C388.676 138.969 388.731 138.729 388.836 138.524C388.945 138.319 389.086 138.151 389.26 138.019C389.437 137.886 389.64 137.791 389.868 137.731C390.1 137.672 390.344 137.652 390.6 137.67L391.126 137.718ZM390.586 138.613C390.458 138.604 390.331 138.609 390.203 138.627C390.075 138.645 389.957 138.682 389.848 138.736C389.743 138.791 389.656 138.866 389.588 138.962C389.524 139.058 389.49 139.183 389.485 139.338C389.485 139.493 389.517 139.627 389.581 139.741C389.645 139.86 389.729 139.958 389.834 140.035C389.939 140.113 390.057 140.174 390.189 140.22C390.322 140.265 390.456 140.297 390.593 140.315L391.14 140.363C391.267 140.372 391.395 140.368 391.522 140.35C391.655 140.336 391.773 140.302 391.878 140.247C391.983 140.197 392.069 140.124 392.138 140.028C392.206 139.933 392.242 139.807 392.247 139.652C392.247 139.493 392.215 139.354 392.151 139.235C392.087 139.121 392.003 139.023 391.898 138.941C391.794 138.864 391.675 138.802 391.543 138.757C391.411 138.711 391.276 138.679 391.14 138.661L390.586 138.613ZM390.114 135.968L390.559 135.264L397.613 140.233L397.169 140.944L390.114 135.968Z" fill="white"/>
</g>
<defs>
<clipPath id="clip0">
<rect width="420" height="282" fill="white"/>
</clipPath>
</defs>
</svg>
