<svg width="360" height="200" viewBox="0 0 360 200" fill="none" xmlns="http://www.w3.org/2000/svg">
<path d="M0 12C0 5.37258 5.37258 0 12 0H348C354.627 0 360 5.37258 360 12V200H0V12Z" fill="#424864"/>
<path d="M0 12C0 5.37258 5.37258 0 12 0H348C354.627 0 360 5.37258 360 12V200H0V12Z" fill="#424864"/>
<mask id="mask0" mask-type="alpha" maskUnits="userSpaceOnUse" x="0" y="0" width="360" height="200">
<path d="M0 12C0 5.37258 5.37258 0 12 0H348C354.627 0 360 5.37258 360 12V200H0V12Z" fill="white"/>
</mask>
<g mask="url(#mask0)">
<path fill-rule="evenodd" clip-rule="evenodd" d="M142.5 263C233.903 263 308 188.903 308 97.5C308 6.09687 233.903 -68 142.5 -68C51.0969 -68 -23 6.09687 -23 97.5C-23 188.903 51.0969 263 142.5 263Z" fill="#3A405B"/>
<rect opacity="0.275158" x="255.274" y="61.774" width="75" height="75" rx="12" transform="rotate(-30 255.274 61.774)" fill="#222428"/>
<path fill-rule="evenodd" clip-rule="evenodd" d="M328 170C333.523 170 338 165.523 338 160C338 154.477 333.523 150 328 150C322.477 150 318 154.477 318 160C318 165.523 322.477 170 328 170Z" fill="#5292DD"/>
</g>
</svg>
