<svg width="37" height="36" viewBox="0 0 37 36" fill="none" xmlns="http://www.w3.org/2000/svg">
<g clip-path="url(#clip0_329_3702)">
<path d="M21.8839 35.9965C23.0876 35.9965 24.1373 34.9468 24.1373 33.7432V28.4806H25.6419C26.5448 28.4806 27.1465 27.8786 27.1465 26.976V11.9453H9.10547V26.9761C9.10547 27.8788 9.70734 28.4807 10.6101 28.4807H12.1148V33.7433C12.1148 34.947 13.1643 35.9967 14.3682 35.9967C15.5718 35.9967 16.6214 34.947 16.6214 33.7433V28.4807H19.6307V33.7433C19.6305 34.9468 20.6802 35.9965 21.8839 35.9965Z" fill="#A6D864"/>
<path d="M30.9057 26.9761C32.1094 26.9761 33.1589 25.9265 33.1589 24.7227V14.1977C33.1589 13.0003 32.1095 11.9453 30.9057 11.9453C29.7019 11.9453 28.6523 13.0004 28.6523 14.1977V24.7227C28.6523 25.9264 29.7018 26.9761 30.9057 26.9761Z" fill="#A6D864"/>
<path d="M5.34691 26.9761C6.55073 26.9761 7.60029 25.9265 7.60029 24.7227V14.1977C7.60029 13.0003 6.55087 11.9453 5.34691 11.9453C4.14323 11.9453 3.09375 13.0004 3.09375 14.1977V24.7227C3.09382 25.9264 4.14323 26.9761 5.34691 26.9761Z" fill="#A6D864"/>
<path d="M25.3408 0.223114C25.04 -0.0795798 24.5921 -0.0795798 24.2913 0.223114L22.2733 2.2344L22.1802 2.32735C20.9836 1.72815 19.642 1.4289 18.148 1.42602C18.1407 1.42602 18.1335 1.4258 18.1261 1.4258H18.1259C18.1183 1.4258 18.1114 1.42602 18.1039 1.42602C16.6099 1.4289 15.2684 1.72815 14.0719 2.32735L13.9785 2.2344L11.9605 0.223114C11.6595 -0.0795798 11.2119 -0.0795798 10.9111 0.223114C10.6101 0.524121 10.6101 0.970885 10.9111 1.27168L12.8632 3.22411C12.2342 3.64409 11.6638 4.158 11.1678 4.74581C9.98037 6.15332 9.22289 7.98516 9.11876 9.96994C9.11777 9.99061 9.11573 10.011 9.11482 10.0317C9.10842 10.1668 9.10547 10.3027 9.10547 10.4391H27.1465C27.1465 10.3027 27.1432 10.1669 27.1371 10.0317C27.1361 10.011 27.1341 9.99061 27.1329 9.96994C27.029 7.98516 26.2713 6.15325 25.0838 4.74595C24.5881 4.15814 24.0175 3.64423 23.3885 3.22425L25.3408 1.27182C25.6418 0.970885 25.6418 0.524191 25.3408 0.223114ZM14.3653 7.81198C13.7428 7.81198 13.2381 7.30735 13.2381 6.68481C13.2381 6.06226 13.7427 5.55763 14.3653 5.55763C14.9877 5.55763 15.4924 6.06226 15.4924 6.68481C15.4924 7.30735 14.9877 7.81198 14.3653 7.81198ZM21.8866 7.81198C21.2641 7.81198 20.7594 7.30735 20.7594 6.68481C20.7594 6.06226 21.264 5.55763 21.8866 5.55763C22.5091 5.55763 23.0138 6.06226 23.0138 6.68481C23.0138 7.30735 22.5091 7.81198 21.8866 7.81198Z" fill="#A6D864"/>
</g>
<defs>
<clipPath id="clip0_329_3702">
<rect width="36.0001" height="36" fill="white" transform="translate(0.125)"/>
</clipPath>
</defs>
</svg>
