<svg width="37" height="36" viewBox="0 0 37 36" fill="none" xmlns="http://www.w3.org/2000/svg">
<g clip-path="url(#clip0_329_3708)">
<path d="M25.626 -0.00390625C23.7067 0.128843 21.4635 1.35734 20.1562 2.95708C18.9637 4.40832 17.9827 6.5638 18.3652 8.65854C20.4622 8.72379 22.629 7.46605 23.8845 5.83931C25.059 4.32507 25.9477 2.18308 25.626 -0.00390625Z" fill="#515151"/>
<path d="M33.2081 12.0736C31.3654 9.76287 28.7756 8.42188 26.3299 8.42188C23.1011 8.42188 21.7354 9.96762 19.4921 9.96762C17.1791 9.96762 15.4219 8.42638 12.6296 8.42638C9.88689 8.42638 6.9664 10.1026 5.11465 12.9691C2.51141 17.0056 2.95691 24.5948 7.17565 31.059C8.6854 33.372 10.7014 35.973 13.3384 35.9955C15.6851 36.018 16.3466 34.4902 19.5259 34.4745C22.7051 34.4565 23.3081 36.0157 25.6504 35.991C28.2896 35.9707 30.4159 33.0885 31.9256 30.7755C33.0079 29.1173 33.4106 28.2825 34.2498 26.4105C28.1456 24.0863 27.1669 15.4058 33.2081 12.0736Z" fill="#515151"/>
</g>
<defs>
<clipPath id="clip0_329_3708">
<rect width="36.0001" height="36" fill="white" transform="translate(0.875)"/>
</clipPath>
</defs>
</svg>
