<svg width="32" height="33" viewBox="0 0 32 33" fill="none" xmlns="http://www.w3.org/2000/svg">
<path d="M26.68 0.921875H5.32C2.38185 0.921875 0 3.30373 0 6.24188V27.6019C0 30.54 2.38185 32.9219 5.32 32.9219H26.68C29.6182 32.9219 32 30.54 32 27.6019V6.24188C32 3.30373 29.6182 0.921875 26.68 0.921875Z" fill="#F1F6FE"/>
<path d="M23.8408 20.9987H13.9408C13.6608 20.9987 13.4108 20.8288 13.3208 20.5688L9.83078 11.1087L7.47078 11.0587C7.10078 11.0587 6.80078 10.7587 6.80078 10.3887C6.80078 10.0187 7.10078 9.71875 7.47078 9.71875H9.77078C10.3508 9.71875 10.8808 10.0887 11.0808 10.6387L11.6108 12.0688L26.2208 12.0387C26.6308 12.0387 27.0208 12.2388 27.2608 12.5788C27.5008 12.9188 27.5608 13.3487 27.4208 13.7487L25.1708 20.0688C24.9708 20.6288 24.4408 21.0087 23.8408 21.0087V20.9987ZM14.4008 19.6687H23.8408L26.1608 13.2988L12.0908 13.3987L14.4008 19.6588V19.6687Z" fill="#0B8BFF"/>
<path d="M24.2013 23.718H13.9413C12.7913 23.718 12.1113 22.718 12.1113 21.758C12.1113 20.798 12.6813 19.668 13.9413 19.668H23.3113C23.6813 19.668 23.9813 19.968 23.9813 20.338C23.9813 20.708 23.6813 21.008 23.3113 21.008H13.9413C13.4713 21.008 13.4513 21.638 13.4513 21.768C13.4513 22.018 13.6113 22.398 13.9513 22.398H24.2113C24.5813 22.398 24.8813 22.698 24.8813 23.068C24.8813 23.438 24.5813 23.738 24.2113 23.738L24.2013 23.718Z" fill="#0B8BFF"/>
<path d="M16.2899 26.107C15.2599 26.107 14.4199 25.267 14.4199 24.237C14.4199 23.207 15.2299 22.457 16.2599 22.457C17.2899 22.457 18.1499 23.207 18.1499 24.237C18.1499 25.267 17.3099 26.107 16.2799 26.107H16.2899ZM16.2899 23.707C15.9899 23.707 15.7499 23.947 15.7499 24.247C15.7499 24.547 15.9899 24.787 16.2899 24.787C16.5899 24.787 16.8299 24.547 16.8299 24.247C16.8299 23.947 16.5899 23.707 16.2899 23.707Z" fill="#0B8BFF"/>
<path d="M22.0712 26.1073C21.0412 26.1073 20.2012 25.2674 20.2012 24.2374C20.2012 23.2074 21.0412 22.5273 22.0712 22.5273C23.1012 22.5273 23.9412 23.2074 23.9412 24.2374C23.9412 25.2674 23.1012 26.1073 22.0712 26.1073ZM22.0712 23.7074C21.7712 23.7074 21.5312 23.9473 21.5312 24.2473C21.5312 24.5473 21.7712 24.7873 22.0712 24.7873C22.3712 24.7873 22.6112 24.5473 22.6112 24.2473C22.6112 23.9473 22.3712 23.7074 22.0712 23.7074Z" fill="#0B8BFF"/>
<path d="M9.53062 17.2305H3.64062C3.23063 17.2305 2.89062 16.8905 2.89062 16.4805C2.89062 16.0705 3.23063 15.7305 3.64062 15.7305H9.53062C9.94062 15.7305 10.2806 16.0705 10.2806 16.4805C10.2806 16.8905 9.94062 17.2305 9.53062 17.2305Z" fill="#0B8BFF"/>
<path d="M10.6212 20.2188H6.03125C5.62125 20.2188 5.28125 19.8787 5.28125 19.4688C5.28125 19.0588 5.62125 18.7188 6.03125 18.7188H10.6312C11.0412 18.7188 11.3812 19.0588 11.3812 19.4688C11.3812 19.8787 11.0412 20.2188 10.6312 20.2188H10.6212Z" fill="#0B8BFF"/>
<path d="M8.16078 14.0469H5.30078C4.89078 14.0469 4.55078 13.7069 4.55078 13.2969C4.55078 12.8869 4.89078 12.5469 5.30078 12.5469H8.16078C8.57078 12.5469 8.91078 12.8869 8.91078 13.2969C8.91078 13.7069 8.57078 14.0469 8.16078 14.0469Z" fill="#0B8BFF"/>
</svg>
