<svg width="37" height="36" viewBox="0 0 37 36" fill="none" xmlns="http://www.w3.org/2000/svg">
<path d="M31.4573 24.6127C31.3148 24.4492 31.1086 24.3555 30.8918 24.3555H5.34747C5.13147 24.3555 4.92596 24.4492 4.78346 24.6112C4.64096 24.7732 4.57571 24.99 4.60421 25.2045L5.38122 31.0462C5.52897 32.1592 6.48747 32.9992 7.61097 32.9992H11.8222C12.0367 32.9992 12.24 32.9077 12.3825 32.748C12.5242 32.5882 12.5917 32.3745 12.567 32.1622L12.315 29.9992H14.01L14.3033 32.3422C14.3498 32.718 14.6693 32.9992 15.0473 32.9992H21.1598C21.531 32.9992 21.8468 32.7277 21.9015 32.3602L22.2555 29.9992H23.9333L23.7135 32.1735C23.6925 32.3842 23.7615 32.595 23.9033 32.7517C24.0458 32.9092 24.2475 32.9992 24.4598 32.9992H28.5983C29.7166 32.9992 30.6751 32.1637 30.8273 31.0567L31.6358 25.2075C31.6651 24.993 31.5998 24.7762 31.4573 24.6127Z" fill="#151A1F"/>
<path d="M25.6251 3.75L32.3751 14.25L30.1251 30.75H24.6096L24.9876 27H21.8751L21.3748 30.75H14.8753L14.375 27H11.2625L11.6405 30.75H6.12501L3.875 14.25L10.625 3.75H25.6251Z" fill="#F9FCFF"/>
<path d="M25.6251 3.75L32.3751 14.25L30.1251 30.75H24.6096L24.9876 27H21.8751L21.3748 30.75H14.8753L14.375 27H11.2625L11.6405 30.75H6.12501L3.875 14.25L10.625 3.75H25.6251Z" stroke="#151A1F" stroke-width="3.60001" stroke-miterlimit="10" stroke-linecap="round" stroke-linejoin="round"/>
<path d="M27.7758 13.878L24.7758 8.628C24.6423 8.394 24.394 8.25 24.1248 8.25H20.3748C20.134 8.25 19.9075 8.3655 19.7665 8.562C19.6255 8.75775 19.5873 9.009 19.663 9.23775L20.0845 10.5H16.165L16.5865 9.237C16.663 9.00825 16.624 8.757 16.483 8.56125C16.342 8.3655 16.1155 8.25 15.8748 8.25H12.1247C11.8555 8.25 11.6072 8.394 11.4737 8.628L8.47374 13.878C8.38824 14.028 8.35673 14.2028 8.38524 14.3738L9.88524 23.3738C9.94524 23.7345 10.258 24 10.6247 24H25.6248C25.9916 24 26.3043 23.7345 26.3643 23.3738L27.8643 14.3738C27.8928 14.2028 27.8613 14.028 27.7758 13.878ZM14.3748 21C13.9608 21 13.6248 19.8247 13.6248 18.375C13.6248 16.9253 13.9608 15.75 14.3748 15.75C14.7888 15.75 15.1248 16.9253 15.1248 18.375C15.1248 19.8247 14.7888 21 14.3748 21ZM21.8748 21C21.4608 21 21.1248 19.8247 21.1248 18.375C21.1248 16.9253 21.4608 15.75 21.8748 15.75C22.2888 15.75 22.6248 16.9253 22.6248 18.375C22.6248 19.8247 22.2888 21 21.8748 21Z" fill="#151A1F"/>
</svg>
