<svg width="37" height="36" viewBox="0 0 37 36" fill="none" xmlns="http://www.w3.org/2000/svg">
<path d="M29.4429 7.17661C26.5531 4.28675 22.711 2.69531 18.6242 2.69531C14.5374 2.69531 10.6952 4.28675 7.80551 7.17655C4.91566 10.0663 3.32422 13.9086 3.32422 17.9953C3.32422 22.0821 4.91566 25.9243 7.80551 28.8141C10.6952 31.7039 14.5374 33.2953 18.6242 33.2953C22.7111 33.2953 26.5531 31.7039 29.443 28.814C32.3327 25.9243 33.9242 22.0821 33.9242 17.9953C33.9242 13.9085 32.3327 10.0663 29.4429 7.17661ZM9.07463 8.44573C10.42 7.10035 11.9994 6.07417 13.7209 5.40437C13.2624 5.97681 12.8333 6.63477 12.4402 7.37479C11.9835 8.23422 11.5894 9.1781 11.2613 10.1863C10.1244 9.99761 9.07104 9.7656 8.12997 9.49331C8.42492 9.13077 8.73958 8.78078 9.07463 8.44573ZM7.04337 11.0377C8.14408 11.3902 9.40286 11.6874 10.7764 11.9228C10.3939 13.5464 10.1688 15.2935 10.115 17.098H5.14922C5.29027 14.9325 5.94064 12.8658 7.04337 11.0377ZM6.94566 24.787C5.90245 23.0001 5.28603 20.993 5.14916 18.8927H10.1184C10.1771 20.6456 10.3978 22.3431 10.7674 23.9242C9.36563 24.1514 8.07523 24.4411 6.94566 24.787ZM9.07463 27.545C8.69332 27.1636 8.3382 26.7632 8.00895 26.3464C8.9845 26.0759 10.0751 25.8468 11.2491 25.663C11.5796 26.6852 11.9779 27.6416 12.4401 28.5116C12.8686 29.318 13.3397 30.0266 13.8452 30.6336C12.0755 29.9652 10.4523 28.9226 9.07463 27.545ZM17.7268 31.2702C16.3636 30.8884 15.0741 29.6436 14.0251 27.6694C13.6582 26.979 13.336 26.2257 13.0599 25.423C14.5379 25.2603 16.1107 25.1641 17.7268 25.1415V31.2702ZM17.7268 23.3466C15.9345 23.371 14.1876 23.4836 12.5517 23.6757C12.1908 22.1839 11.9737 20.5692 11.9141 18.8928H17.7268V23.3466H17.7268ZM17.7268 17.0979H11.9107C11.9651 15.3746 12.1857 13.7149 12.5578 12.1851C14.1833 12.3883 15.9266 12.5119 17.7268 12.5473V17.0979ZM17.7268 10.7522C16.1044 10.7195 14.5351 10.6137 13.0676 10.4411C13.342 9.64673 13.6617 8.90109 14.0251 8.21695C15.0741 6.24277 16.3636 4.99797 17.7268 4.61612V10.7522ZM30.2616 11.133C31.3299 12.9375 31.9606 14.9699 32.0993 17.0979H27.1335C27.0804 15.3143 26.8596 13.5867 26.4851 11.9791C27.8676 11.7559 29.142 11.4718 30.2616 11.133ZM28.1737 8.44573C28.5341 8.80606 28.8707 9.18378 29.1846 9.5759C28.224 9.83822 27.1543 10.0608 26.0049 10.24C25.6733 9.21157 25.2731 8.24952 24.8083 7.37479C24.4151 6.63477 23.9861 5.97681 23.5276 5.40437C25.2489 6.07417 26.8284 7.10035 28.1737 8.44573ZM19.5217 18.8928H25.3344C25.2744 20.5822 25.0543 22.2092 24.6883 23.7106C23.0631 23.5086 21.3206 23.3861 19.5217 23.3517V18.8928ZM19.5217 17.0979V12.5533C21.3149 12.5297 23.0632 12.4181 24.7007 12.2267C25.0668 13.7449 25.2838 15.3902 25.3378 17.0979H19.5217ZM19.5215 4.61612H19.5216C20.8847 4.99797 22.1742 6.24277 23.2232 8.21695C23.5925 8.91185 23.9166 9.67033 24.1938 10.479C22.7139 10.641 21.1393 10.7365 19.5215 10.7583V4.61612ZM19.5217 31.2702V25.1467C21.1425 25.1785 22.7106 25.2834 24.1776 25.4549C23.9039 26.2457 23.5852 26.9881 23.2233 27.6694C22.1743 29.6436 20.8848 30.8884 19.5217 31.2702ZM28.1737 27.545C26.7961 28.9226 25.1729 29.9652 23.4032 30.6335C23.9086 30.0265 24.3798 29.318 24.8083 28.5116C25.2637 27.6545 25.6568 26.7134 25.9845 25.7082C27.1478 25.9003 28.2241 26.1377 29.1828 26.417C28.8695 26.8082 28.5334 27.1852 28.1737 27.545ZM30.255 24.8689C29.1412 24.5109 27.8643 24.2096 26.4703 23.9719C26.8465 22.3773 27.0708 20.6632 27.1301 18.8928H32.0994C31.9603 21.0251 31.3273 23.0616 30.255 24.8689Z" fill="#0099FF"/>
</svg>
