<svg width="32" height="32" viewBox="0 0 32 32" fill="none" xmlns="http://www.w3.org/2000/svg">
<path d="M26.68 0H5.32C2.38185 0 0 2.38185 0 5.32V26.68C0 29.6182 2.38185 32 5.32 32H26.68C29.6182 32 32 29.6182 32 26.68V5.32C32 2.38185 29.6182 0 26.68 0Z" fill="#F1F6FE"/>
<path d="M23.0905 27.7788H13.0805C11.7905 27.7788 10.7305 26.7288 10.7305 25.4288V24.9788C10.7305 24.6388 11.0005 24.3688 11.3405 24.3688C11.6805 24.3688 11.9505 24.6388 11.9505 24.9788V25.4288C11.9505 26.0488 12.4505 26.5487 13.0705 26.5487H23.0805C23.7005 26.5487 24.2005 26.0488 24.2005 25.4288V6.56875C24.2005 5.94875 23.7005 5.44875 23.0805 5.44875H13.0805C12.4605 5.44875 11.9605 5.94875 11.9605 6.56875V8.98875C11.9605 9.32875 11.6905 9.59875 11.3505 9.59875C11.0105 9.59875 10.7405 9.32875 10.7405 8.98875V6.56875C10.7405 5.27875 11.7905 4.21875 13.0905 4.21875H23.1005C24.3905 4.21875 25.4505 5.26875 25.4505 6.56875V25.4288C25.4505 26.7188 24.4005 27.7788 23.1005 27.7788H23.0905Z" fill="#0B8BFF"/>
<path d="M24.8298 25.4888H11.3498C11.0698 25.4888 10.8398 25.2588 10.8398 24.9788C10.8398 24.6988 11.0698 24.4688 11.3498 24.4688H24.8298C25.1098 24.4688 25.3398 24.6988 25.3398 24.9788C25.3398 25.2588 25.1098 25.4888 24.8298 25.4888Z" fill="#0B8BFF"/>
<path d="M18.7405 18.9889H9.63055C9.37055 18.9889 9.14055 18.8289 9.05055 18.5889L5.84055 9.88891L3.67055 9.84891C3.33055 9.84891 3.06055 9.57891 3.06055 9.23891C3.06055 8.89891 3.33055 8.62891 3.67055 8.62891H5.78055C6.32055 8.62891 6.80055 8.96891 6.99055 9.46891L7.48055 10.7889L20.9305 10.7589C21.3105 10.7589 21.6705 10.9389 21.8905 11.2489C22.1105 11.5589 22.1705 11.9589 22.0405 12.3189L19.9705 18.1289C19.7905 18.6389 19.3005 18.9889 18.7505 18.9889H18.7405ZM10.0505 17.7589H18.7405L20.8805 11.8989L7.93055 11.9889L10.0605 17.7589H10.0505Z" fill="#0B8BFF"/>
<path d="M19.0714 21.4878H9.63141C8.58141 21.4878 7.94141 20.5678 7.94141 19.6778C7.94141 18.7878 8.47141 17.7578 9.62141 17.7578H18.2414C18.5814 17.7578 18.8514 18.0278 18.8514 18.3678C18.8514 18.7078 18.5814 18.9778 18.2414 18.9778H9.63141C9.20141 18.9778 9.17141 19.5578 9.17141 19.6778C9.17141 19.9078 9.32141 20.2578 9.63141 20.2578H19.0714C19.4114 20.2578 19.6814 20.5278 19.6814 20.8678C19.6814 21.2078 19.4114 21.4778 19.0714 21.4778V21.4878Z" fill="#0B8BFF"/>
<path d="M11.8001 23.69C10.8501 23.69 10.0801 22.92 10.0801 21.97C10.0801 21.02 10.8501 20.25 11.8001 20.25C12.7501 20.25 13.5201 21.02 13.5201 21.97C13.5201 22.92 12.7501 23.69 11.8001 23.69ZM11.8001 21.48C11.5301 21.48 11.3101 21.7 11.3101 21.97C11.3101 22.24 11.5301 22.46 11.8001 22.46C12.0701 22.46 12.2901 22.24 12.2901 21.97C12.2901 21.7 12.0701 21.48 11.8001 21.48Z" fill="#0B8BFF"/>
<path d="M17.1204 23.69C16.1704 23.69 15.4004 22.92 15.4004 21.97C15.4004 21.02 16.1704 20.25 17.1204 20.25C18.0704 20.25 18.8404 21.02 18.8404 21.97C18.8404 22.92 18.0704 23.69 17.1204 23.69ZM17.1204 21.48C16.8504 21.48 16.6304 21.7 16.6304 21.97C16.6304 22.24 16.8504 22.46 17.1204 22.46C17.3904 22.46 17.6104 22.24 17.6104 21.97C17.6104 21.7 17.3904 21.48 17.1204 21.48Z" fill="#0B8BFF"/>
<path d="M15.3713 5.29688H21.1113V5.87687C21.1113 6.23687 20.8213 6.53687 20.4513 6.53687H16.0213C15.6613 6.53687 15.3613 6.24687 15.3613 5.87687V5.29688H15.3713Z" fill="#0B8BFF"/>
</svg>
