<svg width="32" height="33" viewBox="0 0 32 33" fill="none" xmlns="http://www.w3.org/2000/svg">
<path d="M26.68 0.308594H5.32C2.38185 0.308594 0 2.69045 0 5.6286V26.9886C0 29.9268 2.38185 32.3086 5.32 32.3086H26.68C29.6182 32.3086 32 29.9268 32 26.9886V5.6286C32 2.69045 29.6182 0.308594 26.68 0.308594Z" fill="#F1F6FE"/>
<path d="M9.16016 27.6577C6.95016 27.6577 5.16016 25.8677 5.16016 23.6577V13.2776C5.16016 11.1476 6.88016 9.41765 9.01016 9.41765L12.4802 9.34766H12.4902C12.9002 9.34766 13.2302 9.67765 13.2402 10.0876C13.2402 10.4976 12.9202 10.8477 12.5002 10.8477L9.02016 10.9176C7.71016 10.9176 6.65016 11.9776 6.65016 13.2776V23.6577C6.65016 25.0377 7.78016 26.1577 9.16016 26.1577L20.6202 26.1376C21.7302 26.1376 22.9102 25.6576 22.9102 24.3076C22.9102 23.8976 23.2502 23.5576 23.6602 23.5576C24.0702 23.5576 24.4102 23.8976 24.4102 24.3076C24.4102 26.2676 22.8502 27.6376 20.6202 27.6376L9.16016 27.6577Z" fill="#0B8BFF"/>
<path d="M10.3206 13.619C10.1206 13.619 9.91057 13.539 9.77057 13.379C9.49057 13.069 9.51057 12.599 9.82057 12.319L12.1206 10.219L9.53057 8.46901C9.19057 8.23901 9.10057 7.769 9.33057 7.429C9.56057 7.089 10.0306 6.999 10.3706 7.229L13.7506 9.51901C13.9406 9.64901 14.0606 9.85901 14.0806 10.089C14.1006 10.319 14.0106 10.539 13.8406 10.699L10.8406 13.449C10.7006 13.579 10.5106 13.649 10.3306 13.649L10.3206 13.619Z" fill="#0B8BFF"/>
<path d="M20.2998 23.2085C16.3498 23.2085 13.2598 20.2485 13.2598 16.4585C13.2598 12.9085 15.3498 10.5884 17.3798 8.34845L17.7698 7.91844C17.8298 7.84844 17.8998 7.76845 17.9798 7.68845L16.1998 5.06845C16.0398 4.83845 16.0298 4.53845 16.1598 4.29845C16.2898 4.04845 16.5398 3.89844 16.8198 3.89844H23.7998C24.0798 3.89844 24.3398 4.05844 24.4698 4.30844C24.5998 4.55844 24.5698 4.86844 24.3998 5.08844L22.5098 7.64844L22.5398 7.67844C22.6898 7.82844 22.8398 7.97845 22.9498 8.09845C25.0898 10.4084 27.3598 13.1484 27.3598 16.4284C27.3598 20.2984 24.3298 23.2085 20.3198 23.2085H20.2998ZM19.2598 8.49844C19.1298 8.63844 18.9898 8.78845 18.8898 8.90845L18.4898 9.35844C16.5698 11.4784 14.7598 13.4884 14.7598 16.4284C14.7598 19.3684 17.1398 21.7085 20.2998 21.7085C23.4598 21.7085 25.8398 19.4384 25.8398 16.4284C25.8398 13.6884 23.8598 11.3184 21.8298 9.12845C21.7298 9.01845 21.5898 8.87845 21.4498 8.73845C21.3598 8.64845 21.2698 8.55844 21.1898 8.47844L19.2598 8.51845V8.49844ZM18.2298 5.38844L19.3198 6.98845L21.1298 6.95845L22.2898 5.38844H18.2198H18.2298Z" fill="#0B8BFF"/>
<path d="M22.4593 13.3602H18.1293C17.7993 13.3602 17.5293 13.0901 17.5293 12.7601C17.5293 12.4301 17.7993 12.1602 18.1293 12.1602H22.4593C22.7893 12.1602 23.0593 12.4301 23.0593 12.7601C23.0593 13.0901 22.7893 13.3602 22.4593 13.3602Z" fill="#0B8BFF"/>
<path d="M22.4788 15.1727H18.1488C17.8188 15.1727 17.5488 14.9027 17.5488 14.5727C17.5488 14.2427 17.8188 13.9727 18.1488 13.9727H22.4788C22.8088 13.9727 23.0788 14.2427 23.0788 14.5727C23.0788 14.9027 22.8088 15.1727 22.4788 15.1727Z" fill="#0B8BFF"/>
<path d="M21.2689 19.8119C21.1089 19.8119 20.9489 19.7419 20.8289 19.6219C20.8089 19.6019 19.3089 17.9519 18.1389 16.7919C17.9689 16.6219 17.9189 16.3619 18.0089 16.1419C18.0989 15.9219 18.3189 15.7719 18.5589 15.7719C20.7789 15.7719 20.7789 14.7319 20.7789 14.3919C20.7789 13.4419 19.9189 13.3719 19.6589 13.3719C19.3289 13.3719 19.0589 13.1019 19.0589 12.7719C19.0589 12.4419 19.3289 12.1719 19.6589 12.1719C21.0289 12.1719 21.9789 13.0819 21.9789 14.3919C21.9789 15.0419 21.7489 16.4119 19.8489 16.8419C20.7989 17.8319 21.6889 18.8019 21.6989 18.8119C21.9189 19.0619 21.9089 19.4319 21.6589 19.6619C21.5389 19.7719 21.3989 19.8219 21.2489 19.8219L21.2689 19.8119Z" fill="#0B8BFF"/>
</svg>
