<svg width="32" height="33" viewBox="0 0 32 33" fill="none" xmlns="http://www.w3.org/2000/svg">
<path d="M26.81 0.0117188H5.19C2.32364 0.0117188 0 2.33536 0 5.20172V26.8217C0 29.6881 2.32364 32.0117 5.19 32.0117H26.81C29.6764 32.0117 32 29.6881 32 26.8217V5.20172C32 2.33536 29.6764 0.0117188 26.81 0.0117188Z" fill="#F1F6FE"/>
<path d="M20.9109 17.3295C17.0309 17.3295 13.8809 14.1695 13.8809 10.2995C13.8809 6.42953 17.0409 3.26953 20.9109 3.26953C24.7809 3.26953 27.9409 6.42953 27.9409 10.2995C27.9409 14.1695 24.7809 17.3295 20.9109 17.3295ZM20.9109 4.75955C17.8609 4.75955 15.3809 7.23955 15.3809 10.2896C15.3809 13.3396 17.8609 15.8195 20.9109 15.8195C23.9609 15.8195 26.4409 13.3396 26.4409 10.2896C26.4409 7.23955 23.9609 4.75955 20.9109 4.75955Z" fill="#0B8BFF"/>
<path d="M23.2316 8.01874H18.5816C18.2216 8.01874 17.9316 7.72874 17.9316 7.36874C17.9316 7.00874 18.2216 6.71875 18.5816 6.71875H23.2316C23.5916 6.71875 23.8816 7.00874 23.8816 7.36874C23.8816 7.72874 23.5916 8.01874 23.2316 8.01874Z" fill="#0B8BFF"/>
<path d="M23.2414 9.84689H18.5914C18.2314 9.84689 17.9414 9.5569 17.9414 9.1969C17.9414 8.8369 18.2314 8.54688 18.5914 8.54688H23.2414C23.6014 8.54688 23.8914 8.8369 23.8914 9.1969C23.8914 9.5569 23.6014 9.84689 23.2414 9.84689Z" fill="#0B8BFF"/>
<path d="M21.9424 14.7487C21.7724 14.7487 21.5924 14.6788 21.4724 14.5388C21.4524 14.5188 19.8424 12.7987 18.5924 11.5887C18.4024 11.4087 18.3424 11.1288 18.4424 10.8788C18.5424 10.6288 18.7824 10.4688 19.0424 10.4688C21.4224 10.4688 21.4224 9.40875 21.4224 9.05875C21.4224 8.08875 20.5024 8.01874 20.2224 8.01874C19.8624 8.01874 19.5724 7.72874 19.5724 7.36874C19.5724 7.00874 19.8624 6.71875 20.2224 6.71875C21.6924 6.71875 22.7224 7.67875 22.7224 9.05875C22.7224 9.73875 22.4724 11.1688 20.4724 11.6288C21.4724 12.6488 22.4124 13.6387 22.4224 13.6487C22.6724 13.9087 22.6524 14.3188 22.3924 14.5688C22.2624 14.6888 22.1024 14.7487 21.9424 14.7487Z" fill="#0B8BFF"/>
<path d="M6.35078 26.7619H5.47078C4.47078 26.7619 3.80078 26.0919 3.80078 25.1019V18.3919C3.80078 17.3819 4.49078 16.6719 5.47078 16.6719H6.35078C7.35078 16.6719 8.02078 17.3419 8.02078 18.3419V25.0818C8.02078 26.0818 7.35078 26.7519 6.35078 26.7519V26.7619ZM5.32078 25.2419C5.32078 25.2419 5.37078 25.2619 5.47078 25.2619H6.35078C6.44078 25.2619 6.49078 25.2419 6.50078 25.2319C6.50078 25.2319 6.52078 25.1918 6.52078 25.0818V18.3419C6.52078 18.2319 6.50078 18.1919 6.50078 18.1919C6.50078 18.1919 6.45078 18.1719 6.35078 18.1719H5.47078C5.35078 18.1719 5.30078 18.1719 5.30078 18.3919V25.1019C5.30078 25.1919 5.32078 25.2319 5.32078 25.2419Z" fill="#0B8BFF"/>
<path d="M17.1317 26.1512C16.6417 26.1512 16.1717 26.1312 15.7317 26.1012H15.5717C14.3317 26.0312 7.33172 25.9812 7.26172 25.9812C6.85172 25.9812 6.51172 25.6412 6.51172 25.2312V18.6412C6.51172 18.4412 6.59172 18.2512 6.73172 18.1012C6.87172 17.9612 7.07172 17.8912 7.27172 17.8912C7.28172 17.8912 7.92172 17.9012 9.06172 17.8712C9.19172 17.8012 9.37172 17.6612 9.55172 17.5312C10.0917 17.1412 10.7617 16.6512 11.6017 16.5212C13.0117 16.3012 14.4617 16.2512 16.7317 17.9112H20.4317C21.5717 17.9112 22.4717 18.6112 22.6817 19.6512C22.7017 19.7512 22.7117 19.8412 22.7217 19.9412C23.8217 19.4912 25.0517 18.9812 25.5817 18.7712C26.8017 18.2712 27.8417 18.8512 28.2317 19.6812C28.6617 20.6012 28.3217 21.6212 27.4217 22.1012C25.5617 23.0912 21.6917 24.9012 20.0317 25.6512C19.1317 26.0512 18.0917 26.1512 17.1117 26.1512H17.1317ZM8.02172 24.4912C9.88172 24.5012 14.6017 24.5512 15.6417 24.6012H15.8017C16.9617 24.6712 18.4117 24.7412 19.4217 24.2812C21.0617 23.5412 24.8917 21.7612 26.7217 20.7812C26.9917 20.6412 26.9217 20.4112 26.8817 20.3212C26.8317 20.2012 26.6517 19.9612 26.1617 20.1612C25.0917 20.6012 21.1917 22.2012 21.1917 22.2012C20.8117 22.3612 20.3717 22.1812 20.2117 21.7912C20.0517 21.4112 20.2317 20.9712 20.6217 20.8112C21.1517 20.5912 21.2917 20.2112 21.2317 19.9412C21.1817 19.6812 20.9517 19.4012 20.4517 19.4012H16.5017C16.3417 19.4012 16.1817 19.3512 16.0417 19.2512C14.1117 17.7812 13.0917 17.8012 11.8417 17.9912C11.3617 18.0712 10.8817 18.4212 10.4517 18.7312C10.1417 18.9612 9.84172 19.1812 9.53172 19.3012C9.45172 19.3312 9.37172 19.3512 9.28172 19.3512C8.77172 19.3712 8.34172 19.3712 8.02172 19.3812V24.4812V24.4912Z" fill="#0B8BFF"/>
<path d="M20.9107 22.2617H14.4707C14.0607 22.2617 13.7207 21.9217 13.7207 21.5117C13.7207 21.1017 14.0607 20.7617 14.4707 20.7617H20.9107C21.3207 20.7617 21.6607 21.1017 21.6607 21.5117C21.6607 21.9217 21.3207 22.2617 20.9107 22.2617Z" fill="#0B8BFF"/>
</svg>
