<svg width="37" height="36" viewBox="0 0 37 36" fill="none" xmlns="http://www.w3.org/2000/svg">
<g clip-path="url(#clip0_329_3730)">
<path d="M34.032 8.30527C32.6908 6.20473 29.8066 5.33214 25.9205 5.83297C25.7832 5.84907 25.6377 5.87337 25.5004 5.88946C25.4439 5.76039 25.3875 5.631 25.3228 5.50192C23.6505 1.95505 21.364 0 18.8756 0C16.3872 0 14.0929 1.95505 12.4285 5.50192C12.372 5.631 12.3073 5.76039 12.2508 5.88946C12.1053 5.86548 11.9681 5.84907 11.8308 5.83297C7.93675 5.32393 5.0605 6.20473 3.71925 8.30527C2.37832 10.4058 2.79016 13.3868 4.87461 16.6992C5.14949 17.1357 5.44835 17.5718 5.77151 18.0001C5.44835 18.4362 5.14949 18.8645 4.87461 19.3006C2.79016 22.613 2.37832 25.6022 3.71925 27.6949C4.80992 29.4075 6.92688 30.3044 9.77852 30.3044C10.4621 30.3006 11.1447 30.2549 11.8226 30.1668C11.9599 30.1507 12.1053 30.1264 12.2426 30.1103C12.2994 30.2397 12.3559 30.3688 12.4206 30.4982C14.0929 34.0448 16.3793 36.0001 18.8674 36.0001C21.3558 36.0001 23.6505 34.0448 25.3146 30.4982C25.371 30.3688 25.4357 30.2397 25.4922 30.1103C25.6377 30.1346 25.775 30.1507 25.9126 30.1668C26.5898 30.2587 27.2728 30.3044 27.9563 30.3044C30.8083 30.3044 32.9249 29.4075 34.0156 27.6949C35.3568 25.5943 34.9447 22.613 32.8605 19.3006C32.5857 18.8645 32.2868 18.4283 31.9636 18.0001C32.2868 17.5636 32.5857 17.1357 32.8605 16.6992C34.969 13.3789 35.3811 10.3976 34.032 8.30527ZM13.8909 6.18864C15.2562 3.2802 17.0739 1.6158 18.8756 1.6158C20.6773 1.6158 22.4951 3.2802 23.8603 6.18864C23.8613 6.19463 23.8641 6.20031 23.8685 6.20473C22.1524 6.61752 20.4785 7.1881 18.8674 7.90921C17.2582 7.18462 15.5837 6.61373 13.8666 6.20473C13.8827 6.20473 13.8827 6.19653 13.8909 6.18864ZM26.155 18.0001C26.1553 19.2927 26.0852 20.5847 25.9448 21.8698C24.9377 22.6824 23.8859 23.4376 22.794 24.1319C21.5338 24.9411 20.2222 25.6672 18.8674 26.3053C17.5154 25.6622 16.2039 24.9363 14.9412 24.1319C13.8505 23.4357 12.7987 22.6805 11.7904 21.8698C11.5101 19.2974 11.5101 16.7024 11.7904 14.13C13.9679 12.3801 16.3434 10.8915 18.8674 9.69479C20.2197 10.3376 21.531 11.0635 22.794 11.8679C23.8846 12.5641 24.9365 13.3193 25.9448 14.13C26.0852 15.4154 26.1553 16.7071 26.155 18.0001ZM27.6979 15.6489C28.489 16.3858 29.2338 17.171 29.9278 18.0001C29.2338 18.8288 28.489 19.614 27.6979 20.3509C27.7465 19.5755 27.7708 18.7919 27.7708 18.0001C27.7708 17.2083 27.7465 16.4247 27.6979 15.6489ZM25.6134 24.1644C25.3584 25.5631 24.9882 26.9384 24.5066 28.2765C23.2519 27.9931 22.0205 27.615 20.8228 27.1454C21.7759 26.6446 22.7293 26.0951 23.6744 25.4974C24.3372 25.0692 24.9835 24.6248 25.6134 24.1644ZM16.9285 27.1454C15.733 27.621 14.501 27.9994 13.2446 28.2765C12.763 26.9384 12.3928 25.5631 12.1378 24.1644C12.7599 24.6248 13.4062 25.0692 14.0768 25.4892C15.022 26.0951 15.9754 26.6446 16.9285 27.1454ZM10.0534 20.3509C9.26222 19.614 8.51775 18.8288 7.82346 18.0001C8.51775 17.171 9.26222 16.3858 10.0534 15.6489C10.0048 16.4247 9.9805 17.2083 9.9805 18.0001C9.9805 18.7919 10.0048 19.5755 10.0534 20.3509ZM12.1378 11.8357C12.3928 10.4367 12.763 9.06141 13.2446 7.72364C14.4994 8.00672 15.7311 8.3848 16.9285 8.8547C15.9754 9.35554 15.022 9.90497 14.0768 10.5027C13.4141 10.9309 12.7678 11.3753 12.1378 11.8357ZM23.6666 10.5027C22.7293 9.90497 21.7759 9.34733 20.8146 8.8547C22.01 8.37912 23.2421 8.00073 24.4988 7.72364C24.98 9.06141 25.3502 10.4367 25.6055 11.8357C24.9835 11.3753 24.3372 10.9309 23.6666 10.5027ZM6.24016 15.8348C4.52715 13.1202 4.10711 10.6886 5.07659 9.16966C5.8523 7.95781 7.5328 7.30328 9.80282 7.30328C10.4106 7.30581 11.0178 7.34652 11.6206 7.42447H11.6367C10.9831 9.32493 10.5284 11.2879 10.2797 13.2817C9.03468 14.3203 7.87553 15.458 6.81358 16.6831C6.61161 16.4086 6.41783 16.1258 6.24016 15.8348ZM11.6127 28.5674C11.0099 28.6457 10.4028 28.6861 9.79493 28.6886C7.5246 28.6886 5.8441 28.0423 5.0687 26.8223C4.09922 25.3033 4.51926 22.8718 6.23195 20.1571C6.40963 19.8743 6.60372 19.5834 6.80569 19.3006C7.86733 20.526 9.02648 21.6634 10.2715 22.702C10.5205 24.6962 10.9752 26.6591 11.6288 28.5592C11.6288 28.5674 11.6206 28.5674 11.6127 28.5674ZM23.8603 29.8115C22.4951 32.7199 20.6773 34.3843 18.8756 34.3843C17.0739 34.3843 15.2562 32.7199 13.8909 29.8115C13.89 29.8055 13.8871 29.7998 13.8827 29.7954C15.5989 29.3826 17.2728 28.812 18.8838 28.0906C20.493 28.8155 22.1675 29.3864 23.8846 29.7954C23.8685 29.7954 23.8685 29.8033 23.8603 29.8115ZM31.5111 20.1653C33.2241 22.8796 33.6442 25.3116 32.6747 26.8305C31.7052 28.3491 29.3219 28.9875 26.1385 28.5674H26.1225C26.776 26.667 27.2311 24.704 27.4798 22.7102C28.7248 21.6716 29.8839 20.5339 30.9456 19.3088C31.1397 19.5916 31.3334 19.8743 31.5111 20.1653ZM27.4716 13.2899C27.2229 11.2958 26.7681 9.33282 26.1146 7.43267H26.1307C29.3137 7.02052 31.697 7.65074 32.6665 9.16966C33.6359 10.6886 33.2159 13.1202 31.5032 15.8348C31.3255 16.1176 31.1314 16.4086 30.9295 16.6913C29.8726 15.464 28.7159 14.3263 27.4716 13.2899Z" fill="url(#paint0_linear_329_3730)"/>
<path d="M18.8752 14.8008C17.1082 14.8008 15.6758 16.2332 15.6758 18.0002C15.6758 19.7672 17.1082 21.1993 18.8752 21.1993C20.6422 21.1993 22.0746 19.7672 22.0746 18.0002C22.0734 16.2335 20.6415 14.802 18.8752 14.8008ZM18.8752 19.5835C18.0007 19.5835 17.2916 18.8747 17.2916 18.0002C17.2916 17.1257 18.0007 16.4166 18.8752 16.4166C19.7497 16.4166 20.4588 17.1257 20.4588 18.0002C20.4572 18.874 19.7491 19.5822 18.8752 19.5835Z" fill="url(#paint1_linear_329_3730)"/>
</g>
<defs>
<linearGradient id="paint0_linear_329_3730" x1="18.8781" y1="-1.38959" x2="18.8781" y2="37.7781" gradientUnits="userSpaceOnUse">
<stop stop-color="#00EFD1"/>
<stop offset="1" stop-color="#00ACEA"/>
</linearGradient>
<linearGradient id="paint1_linear_329_3730" x1="18.8752" y1="-1.38946" x2="18.8752" y2="37.7782" gradientUnits="userSpaceOnUse">
<stop stop-color="#00EFD1"/>
<stop offset="1" stop-color="#00ACEA"/>
</linearGradient>
<clipPath id="clip0_329_3730">
<rect width="36.0001" height="36" fill="white" transform="translate(0.875)"/>
</clipPath>
</defs>
</svg>
