<svg width="19" height="18" viewBox="0 0 19 18" fill="none" xmlns="http://www.w3.org/2000/svg">
<g id="vuesax/bold/tick-circle">
<g id="tick-circle">
<path id="Vector" d="M9.08594 1.5C4.95344 1.5 1.58594 4.8675 1.58594 9C1.58594 13.1325 4.95344 16.5 9.08594 16.5C13.2184 16.5 16.5859 13.1325 16.5859 9C16.5859 4.8675 13.2184 1.5 9.08594 1.5ZM12.6709 7.275L8.41844 11.5275C8.31344 11.6325 8.17094 11.6925 8.02094 11.6925C7.87094 11.6925 7.72844 11.6325 7.62344 11.5275L5.50094 9.405C5.28344 9.1875 5.28344 8.8275 5.50094 8.61C5.71844 8.3925 6.07844 8.3925 6.29594 8.61L8.02094 10.335L11.8759 6.48C12.0934 6.2625 12.4534 6.2625 12.6709 6.48C12.8884 6.6975 12.8884 7.05 12.6709 7.275Z" fill="#016DF7"/>
</g>
</g>
</svg>
