<svg width="32" height="33" viewBox="0 0 32 33" fill="none" xmlns="http://www.w3.org/2000/svg">
<path d="M26.68 0.53125H5.32C2.38185 0.53125 0 2.91309 0 5.85125V27.2113C0 30.1494 2.38185 32.5312 5.32 32.5312H26.68C29.6182 32.5312 32 30.1494 32 27.2113V5.85125C32 2.91309 29.6182 0.53125 26.68 0.53125Z" fill="#F1F6FE"/>
<path d="M14.7699 23.5792C14.6599 23.5792 14.5499 23.5592 14.4499 23.5092C13.7999 23.1992 13.6499 23.1292 17.1299 9.39919C17.2099 9.08919 17.4799 8.85919 17.7999 8.83919C18.1199 8.80919 18.4199 8.98919 18.5499 9.28919L21.6299 16.2992C21.7499 16.5792 21.6899 16.9092 21.4699 17.1292C20.0199 18.5792 17.4099 21.2292 16.0999 22.5592L15.3199 23.3492C15.1799 23.4992 14.9799 23.5692 14.7799 23.5692L14.7699 23.5792ZM18.0599 11.8992C17.3499 14.7992 16.5199 18.2692 16.0099 20.5192C17.2599 19.2592 18.8999 17.5892 20.0499 16.4292L18.0599 11.8892V11.8992Z" fill="#0B8BFF"/>
<path d="M11.3894 22.8181C11.1794 23.1081 13.3194 14.0881 14.4694 9.57812L17.5494 16.5881C15.6194 18.5181 11.6094 22.5981 11.3994 22.8181H11.3894Z" fill="#F1F6FE"/>
<path d="M11.3793 23.5792C11.2693 23.5792 11.1593 23.5592 11.0593 23.5092C10.4093 23.1992 10.2593 23.1292 13.7393 9.39919C13.8193 9.08919 14.0893 8.85919 14.4093 8.83919C14.7293 8.80919 15.0293 8.98919 15.1593 9.28919L18.2393 16.2992C18.3593 16.5792 18.2993 16.9092 18.0793 17.1292C16.6393 18.5692 14.0393 21.2092 12.7293 22.5392L11.9293 23.3492C11.7893 23.4992 11.5893 23.5792 11.3893 23.5792H11.3793ZM14.6693 11.8992C13.9493 14.8192 13.1193 18.2792 12.6093 20.5292C13.8593 19.2692 15.4993 17.5992 16.6593 16.4392L14.6693 11.8992Z" fill="#0B8BFF"/>
<path d="M22.6905 29.8014C22.5605 29.8014 22.4305 29.7714 22.3105 29.7214C21.9905 29.5814 21.7905 29.2714 21.7505 28.8914L21.2305 22.8814C21.2305 22.6514 21.2705 22.4514 21.3605 22.2714C21.4605 22.0914 21.6105 21.9414 21.7805 21.8414C21.9705 21.7414 22.1705 21.6914 22.3605 21.6914C22.5605 21.6914 22.7605 21.7514 22.9305 21.8614L27.8205 25.4714C28.3005 25.8214 28.2905 26.2314 28.2605 26.3914C28.2105 26.6814 27.9905 26.9214 27.7005 27.0014C27.5805 27.0414 27.3005 27.1214 24.4205 26.6514C24.1305 27.4614 23.5605 29.0314 23.3905 29.3914C23.3505 29.4814 23.2805 29.5614 23.2005 29.6214C23.0505 29.7314 22.8605 29.7914 22.6705 29.7914L22.6905 29.8014ZM22.4505 22.9914L22.8405 27.5214C23.0505 26.9414 23.2905 26.2914 23.4705 25.7814C23.5705 25.5114 23.8405 25.3414 24.1305 25.3914C24.7905 25.5014 25.5005 25.6114 26.1105 25.6914L22.4405 22.9814L22.4505 22.9914Z" fill="#0B8BFF"/>
<path d="M19.0198 27.3105H10.0298C7.30984 27.3105 5.08984 25.0905 5.08984 22.3705V9.92046C5.08984 7.20046 7.30984 4.98047 10.0298 4.98047H22.1198C24.8398 4.98047 27.0598 7.20046 27.0598 9.92046V20.9105C27.0598 21.3205 26.7198 21.6605 26.3098 21.6605C25.8998 21.6605 25.5598 21.3205 25.5598 20.9105V9.92046C25.5598 8.02046 24.0198 6.48047 22.1198 6.48047H10.0298C8.12984 6.48047 6.58984 8.02046 6.58984 9.92046V22.3705C6.58984 24.2705 8.12984 25.8105 10.0298 25.8105H19.0198C19.4298 25.8105 19.7698 26.1505 19.7698 26.5605C19.7698 26.9705 19.4298 27.3105 19.0198 27.3105Z" fill="#0B8BFF"/>
</svg>
